<?xml version="1.0" encoding="UTF-8" standalone="no"?>
<svg
   width="1136"
   height="794"
   viewBox="0 0 1136 794"
   version="1.1"
   id="svg123"
   sodipodi:docname="about.svg"
   inkscape:version="1.1 (c68e22c387, 2021-05-23)"
   xmlns:inkscape="http://www.inkscape.org/namespaces/inkscape"
   xmlns:sodipodi="http://sodipodi.sourceforge.net/DTD/sodipodi-0.dtd"
   xmlns="http://www.w3.org/2000/svg"
   xmlns:svg="http://www.w3.org/2000/svg">
  <sodipodi:namedview
     id="namedview125"
     pagecolor="#ffffff"
     bordercolor="#666666"
     borderopacity="1.0"
     inkscape:pageshadow="2"
     inkscape:pageopacity="0.0"
     inkscape:pagecheckerboard="0"
     showgrid="false"
     inkscape:zoom="0.65491184"
     inkscape:cx="704.675"
     inkscape:cy="519.91731"
     inkscape:window-width="1366"
     inkscape:window-height="705"
     inkscape:window-x="-8"
     inkscape:window-y="-8"
     inkscape:window-maximized="1"
     inkscape:current-layer="Group_266" />
  <defs
     id="defs33">
    <linearGradient
       id="linear-gradient"
       x1="0.493"
       y1="1.236"
       x2="0.514"
       y2="-0.278"
       gradientUnits="objectBoundingBox">
      <stop
         offset="0"
         stop-color="#001462"
         id="stop2" />
      <stop
         offset="0.069"
         stop-color="#071e71"
         id="stop4" />
      <stop
         offset="0.252"
         stop-color="#183594"
         id="stop6" />
      <stop
         offset="0.437"
         stop-color="#2647b0"
         id="stop8" />
      <stop
         offset="0.623"
         stop-color="#3054c4"
         id="stop10" />
      <stop
         offset="0.81"
         stop-color="#365cd0"
         id="stop12" />
      <stop
         offset="1"
         stop-color="#385fd4"
         id="stop14" />
    </linearGradient>
    <linearGradient
       id="linear-gradient-2"
       x1="-2.16"
       y1="0.268"
       x2="5.982"
       y2="0.959"
       gradientUnits="objectBoundingBox">
      <stop
         offset="0.105"
         stop-color="#001462"
         id="stop17" />
      <stop
         offset="0.297"
         stop-color="#132e89"
         id="stop19" />
      <stop
         offset="0.49"
         stop-color="#2343aa"
         id="stop21" />
      <stop
         offset="0.675"
         stop-color="#2e52c1"
         id="stop23" />
      <stop
         offset="0.849"
         stop-color="#355bcf"
         id="stop25" />
      <stop
         offset="1"
         stop-color="#385fd4"
         id="stop27" />
    </linearGradient>
    <clipPath
       id="clip-About_Us">
      <rect
         width="1136"
         height="794"
         id="rect30" />
    </clipPath>
  </defs>
  <g
     id="About_Us"
     data-name="About Us"
     clip-path="url(#clip-About_Us)">
    <rect
       width="1136"
       height="794"
       fill="#ffffff"
       id="rect35"
       x="0"
       y="0" />
    <g
       id="Group_267"
       data-name="Group 267"
       transform="translate(-141.37,-269.763)">
      <path
         id="Path-Copy"
         d="M 964.075,362.834 C 764.062,553.226 653.783,323.86 280.225,498.354 -93.333,672.848 387.838,1198.8 936.941,996.016 1486.044,793.232 1164.088,172.44 964.075,362.834 Z"
         transform="translate(2.735,23.632)"
         fill="#f4f6f9" />
      <g
         id="Group_266"
         data-name="Group 266"
         transform="translate(141.363,301.208)">
        <g
           id="Group_247"
           data-name="Group 247">
          <path
             id="Path_528"
             data-name="Path 528"
             d="m 371.982,528.679 -1.306,0.6 -2.376,1.154 c -1.556,0.761 -2.948,1.531 -4.407,2.3 q -4.217,2.343 -8.167,4.832 a 178.016,178.016 0 0 0 -15.054,10.637 204.34,204.34 0 0 0 -26.387,24.709 227.28,227.28 0 0 0 -21.69,28.423 253.425,253.425 0 0 0 -16.9,31.1 275.04,275.04 0 0 0 -12.382,32.747 c -1.56,5.572 -3.311,11.121 -4.538,16.745 l -1.98,8.417 -1.622,8.454 a 353.525,353.525 0 0 0 -5.16,41.746 v -52.924 a 258.743,258.743 0 0 1 10.345,-38.44 c 7.543,-22.567 18.688,-48.7 31.061,-76.969 10.14,-23.118 18.8,-43.453 26.832,-59.952 7.988,-16.474 15.963,-28.645 22.473,-35.143 -6.432,6.436 -18.542,14.783 -31.609,28.77 a 203.635,203.635 0 0 0 -38.062,57.3 272.347,272.347 0 0 0 -21.039,78.687 V 527.733 a 102.669,102.669 0 0 1 10.34,-22.749 c 7.526,-12.947 17.924,-27.281 28.367,-43.754 a 286.193,286.193 0 0 0 19.493,-37.361 c 4.8,-10.95 8.712,-19.561 11.942,-24.362 -3.252,4.831 -11.412,9.836 -20.767,17.569 -9.4,7.67 -20.4,17.9 -29.5,32.254 a 141.751,141.751 0 0 0 -19.877,51.1 v -43.707 c 3.071,-20.15 9.551,-50.526 9.551,-85.661 0,-37.632 -11.137,-65.77 -11.137,-79.062 0,13.292 -11.138,41.429 -11.138,79.062 0,35.146 6.484,65.529 9.554,85.68 v 47.614 A 304.694,304.694 0 0 0 223.988,418.073 240.455,240.455 0 0 0 183.77,355.415 c -13.705,-15.5 -26.258,-25.28 -33.7,-31.771 7.567,6.6 15.867,20.088 24.458,37.985 8.667,17.93 17.96,40.208 29.051,65.37 13.316,30.881 24.993,59.413 32.858,84.035 a 273.86,273.86 0 0 1 10.405,42.192 v 73.493 q -1.453,-13.672 -3.829,-27.1 A 439.378,439.378 0 0 0 228.3,540.728 506.721,506.721 0 0 0 206.423,484.44 c -4.182,-9.191 -8.813,-18.255 -13.7,-27.283 a 262.464,262.464 0 0 0 -17.2,-27.214 c 8,10.8 9.091,22.057 8.118,32.874 a 89.3,89.3 0 0 1 -3.411,15.734 c -1.615,5.069 -3.489,9.887 -5.3,14.363 -2.663,6.469 -2.247,11.356 -0.065,15.425 2.069,4.117 5.775,7.478 9.616,10.688 7.453,6.46 15.355,12.547 9.842,21.488 -5.347,8.863 -11.884,17.187 -11.36,26.83 0.191,4.856 1.982,10.082 6.59,16.151 4.311,6.144 11.577,13.07 21.875,22.079 a 123.611,123.611 0 0 1 16.971,18.03 154.223,154.223 0 0 1 11.758,18.036 c 3,5.569 5.041,10.476 6.508,13.941 0.061,0.15 0.114,0.281 0.174,0.425 v 84.038 c -0.3,-1.879 -9.562,-54.862 -41.038,-84.166 -29.577,-27.535 -57.179,-36.292 -64.436,-40.324 7.316,4.045 48.957,55.471 62.56,73.185 20.987,27.333 42.906,61.547 42.906,99.412 a 0.3,0.3 0 0 0 0.007,0.051 v 114.664 h 3.17 V 758.019 a 51.4,51.4 0 0 1 2.592,-9.7 64.778,64.778 0 0 1 8.694,-15.335 97.169,97.169 0 0 1 11.735,-12.458 c 4.266,-3.694 8.594,-6.966 12.662,-9.935 5.99,-4.242 8.485,-8.858 9.236,-13.82 0.932,-4.9 -0.213,-10.254 -1,-15.47 -0.446,-2.621 -0.931,-5.24 -1.254,-7.773 a 31.6,31.6 0 0 1 -0.008,-7.149 11.3,11.3 0 0 1 7.776,-10 c 10.112,-3.79 20.572,-5.909 27.056,-13.458 a 23.847,23.847 0 0 0 4.3,-6.819 44.325,44.325 0 0 0 3.01,-9.694 c 1.562,-7.708 2.361,-17.813 3.619,-32.278 1.622,-17.937 9.146,-35.221 17.386,-47.065 8.14,-12 16.539,-18.638 17.953,-19.151 z"
             transform="translate(-141.363,-292)"
             fill="#becce3" />
          <path
             id="Path_529"
             data-name="Path 529"
             d="m 819.185,570.618 1.028,0.472 1.867,0.906 c 1.224,0.6 2.319,1.2 3.465,1.812 q 3.313,1.841 6.418,3.8 a 140.018,140.018 0 0 1 11.832,8.359 160.632,160.632 0 0 1 20.74,19.421 178.679,178.679 0 0 1 17.046,22.34 198.942,198.942 0 0 1 13.286,24.441 216.067,216.067 0 0 1 9.733,25.731 c 1.227,4.38 2.6,8.741 3.567,13.162 l 1.556,6.617 1.277,6.647 a 277.908,277.908 0 0 1 4.055,32.81 v -41.6 a 203.339,203.339 0 0 0 -8.13,-30.212 c -5.929,-17.737 -14.688,-38.278 -24.413,-60.495 -7.969,-18.169 -14.778,-34.152 -21.087,-47.12 -6.278,-12.948 -12.547,-22.514 -17.663,-27.621 5.055,5.058 14.574,11.618 24.842,22.612 a 160.022,160.022 0 0 1 29.915,45.034 214.081,214.081 0 0 1 16.536,61.845 V 569.874 A 80.694,80.694 0 0 0 906.925,552 C 901.01,541.823 892.838,530.558 884.63,517.611 a 224.8,224.8 0 0 1 -15.321,-29.363 c -3.776,-8.608 -6.847,-15.376 -9.386,-19.147 2.556,3.8 8.969,7.729 16.323,13.807 7.386,6.029 16.035,14.065 23.183,25.35 a 111.374,111.374 0 0 1 15.623,40.164 v -34.359 c -2.415,-15.837 -7.508,-39.711 -7.508,-67.326 0,-29.577 8.755,-51.692 8.755,-62.138 0,10.446 8.753,32.562 8.753,62.138 0,27.624 -5.1,51.5 -7.509,67.34 V 551.5 a 239.515,239.515 0 0 1 17.963,-67.815 188.985,188.985 0 0 1 31.608,-49.246 c 10.773,-12.182 20.638,-19.869 26.487,-24.971 -5.946,5.191 -12.47,15.788 -19.222,29.855 -6.812,14.092 -14.115,31.6 -22.833,51.379 -10.466,24.272 -19.643,46.695 -25.825,66.047 a 215.348,215.348 0 0 0 -8.179,33.162 v 57.761 q 1.142,-10.745 3.01,-21.3 a 345.456,345.456 0 0 1 11.563,-46.285 398.32,398.32 0 0 1 17.194,-44.239 c 3.287,-7.224 6.927,-14.348 10.771,-21.445 a 206.293,206.293 0 0 1 13.52,-21.387 c -6.286,8.488 -7.145,17.336 -6.381,25.838 a 70.333,70.333 0 0 0 2.681,12.366 c 1.269,3.983 2.742,7.77 4.163,11.288 2.093,5.085 1.765,8.926 0.051,12.124 -1.625,3.236 -4.538,5.877 -7.559,8.4 -5.857,5.078 -12.067,9.862 -7.734,16.889 4.2,6.966 9.339,13.508 8.927,21.087 -0.15,3.815 -1.557,7.923 -5.179,12.693 -3.388,4.829 -9.1,10.273 -17.192,17.353 a 97.187,97.187 0 0 0 -13.34,14.171 102.939,102.939 0 0 0 -14.356,25.133 l -0.137,0.335 v 66.05 c 0.237,-1.478 7.516,-43.12 32.255,-66.151 23.245,-21.641 44.94,-28.525 50.643,-31.692 -5.75,3.179 -38.478,43.6 -49.17,57.52 -16.5,21.481 -33.722,48.372 -33.722,78.134 a 0.191,0.191 0 0 1 -0.006,0.039 v 90.121 h -2.491 V 750.868 a 40.517,40.517 0 0 0 -2.039,-7.621 50.893,50.893 0 0 0 -6.832,-12.053 76.477,76.477 0 0 0 -9.223,-9.791 c -3.354,-2.9 -6.755,-5.474 -9.952,-7.809 -4.708,-3.334 -6.668,-6.961 -7.259,-10.861 -0.733,-3.851 0.168,-8.059 0.785,-12.159 0.35,-2.06 0.73,-4.119 0.984,-6.11 a 24.746,24.746 0 0 0 0.007,-5.619 8.882,8.882 0 0 0 -6.111,-7.862 c -7.948,-2.978 -16.168,-4.644 -21.265,-10.578 a 18.78,18.78 0 0 1 -3.376,-5.359 34.924,34.924 0 0 1 -2.365,-7.619 c -1.228,-6.058 -1.855,-14 -2.845,-25.369 a 80.3,80.3 0 0 0 -13.664,-36.99 c -6.4,-9.43 -13,-14.648 -14.109,-15.052 z"
             transform="translate(137.352,-253.845)"
             fill="#cdd8e9" />
        </g>
        <g
           id="Group_257"
           data-name="Group 257"
           transform="translate(148.312,143.068)">
          <g
             id="Group_249"
             data-name="Group 249"
             transform="translate(217.818,44.399)">
            <path
               id="Path_530"
               data-name="Path 530"
               d="m 426.879,776.862 c 4.866,20.564 12.023,43.649 19.452,65.425 h 123.2 c 2.776,-8.954 5.538,-18.571 8.16,-28.779 15.136,-58.953 -0.8,-109.94 -15.137,-133.043 -14.337,-23.103 -26.689,-50.589 -4.815,-84.285 21.874,-33.696 23.936,-59.911 23.936,-59.911 -3.187,-12.748 -13.146,-17.13 -39.009,-29.472 0,0 -1.543,-0.515 -3.941,-1.326 -5.477,22.247 -17.038,39.938 -37.514,43.545 -26.681,4.7 -50.766,-11.576 -62.946,-40.147 -11.747,3.468 -24.828,7.165 -31.061,10.669 0,0 32.663,70.9 38.89,111 6.227,40.1 -34.106,83.388 -19.215,146.324 z"
               transform="translate(-397.954,-391.508)"
               fill="#e85766"
               style="fill:#eb5d1e;fill-opacity:1" />
            <g
               id="Group_248"
               data-name="Group 248"
               transform="translate(40.315,68.68)">
              <path
                 id="Path_531"
                 data-name="Path 531"
                 d="m 492.151,562.229 c 20.476,-3.6 32.036,-21.3 37.514,-43.543 -8.57,-2.9 -28.725,-9.819 -34.328,-12.621 -7.169,-3.585 -5.178,-32.663 -5.178,-32.663 l -37.858,10.8 v 28.232 c 0,2.646 -10.819,6.022 -23.1,9.646 12.184,28.575 36.268,44.849 62.95,40.149 z"
                 transform="translate(-429.205,-473.402)"
                 fill="#cdd8e9" />
              <path
                 id="Path_532"
                 data-name="Path 532"
                 d="m 483.419,473.734 -37.858,10.8 v 23.995 c 16,8.643 33.948,24.685 40.045,53.987 20.352,-3.685 31.86,-21.326 37.319,-43.5 -8.57,-2.9 -28.725,-9.819 -34.327,-12.621 -7.17,-3.583 -5.179,-32.661 -5.179,-32.661 z"
                 transform="translate(-422.466,-473.265)"
                 fill="#cdd8e9" />
            </g>
            <path
               id="Path_533"
               data-name="Path 533"
               d="m 519.4,599.162 c -16.9,5.168 -32.838,10.849 -41.278,10.849 -16.73,0 -41.427,-23.5 -53.107,-9.134 -11.68,14.366 -13.414,23.872 -4.27,30.246 9.144,6.374 38.256,-2.391 52.2,0.4 6.221,1.244 27.444,2.326 49.99,1.978 1.92,-8.964 1.642,-25.347 -3.535,-34.339 z"
               transform="translate(-394.78,-354.114)"
               fill="#f5f7fa" />
            <path
               id="Path_534"
               data-name="Path 534"
               d="m 539.849,528.583 c -3.927,-15.708 -36.249,13.145 -28.28,39.434 6.83,22.543 4.346,52.834 4.346,52.834 l 31.645,32.011 c 10.755,-13.144 -4.524,-111.532 -7.711,-124.279 z"
               transform="translate(-355.472,-383.821)"
               fill="#e85766"
               style="fill:#eb5d1e;fill-opacity:1" />
            <path
               id="Path_535"
               data-name="Path 535"
               d="m 535.266,592.844 c -12.237,-1.788 -29.756,2.8 -46.354,7.874 5.175,8.992 5.453,25.374 3.534,34.337 27.97,-0.432 57.977,-3.066 63.932,-10.343 -0.001,-10e-4 14.34,-26.69 -21.112,-31.868 z"
               transform="translate(-364.289,-355.669)"
               fill="#e85766"
               style="fill:#eb5d1e;fill-opacity:1" />
            <path
               id="Path_536"
               data-name="Path 536"
               d="m 440.489,444.416 c -6.645,12.923 -5.907,56.859 12.553,60.921 16.127,3.547 25.107,-12.185 25.107,-12.185 v -29.141 a 21.312,21.312 0 0 1 -10.339,-15.9 c -0.994,-8.93 -6.276,-9.877 -6.276,-9.877 0,0 -11.076,6.552 -21.045,6.182 z"
               transform="translate(-385.816,-419.214)"
               fill="#f5f7fa" />
            <path
               id="Path_537"
               data-name="Path 537"
               d="m 426.621,627.064 c -8.335,-16.781 -13.873,-37.939 -18.752,-49.878 -9.209,-22.533 -10.708,-53.948 2.039,-61.119 23.5,-12.034 33.46,29.352 35.053,41.364 1.593,12.012 4.781,40.086 13.544,50.149 z"
               transform="translate(-400.654,-388.036)"
               fill="#e85766"
               style="fill:#eb5d1e;fill-opacity:1" />
            <path
               id="Path_538"
               data-name="Path 538"
               d="m 516.719,518.483 c -15.929,-9.956 1.827,-64.873 -24.89,-86 -22,-17.4 -57.079,-4.314 -57.079,28.539 v 78.742 c 8.7,-2.717 15.266,-5.22 15.266,-7.282 V 509.35 c -14.661,-9.334 -14.963,-47.278 -8.738,-59.385 9.969,0.37 21.045,-6.185 21.045,-6.185 0,0 5.282,0.946 6.276,9.877 a 21.312,21.312 0 0 0 10.339,15.9 V 498.7 c 0,27.361 6.586,57.281 22.183,58.94 15.597,1.659 18.252,-18.916 30.2,-17.588 0,10e-4 1.327,-11.614 -14.602,-21.569 z"
               transform="translate(-386.605,-424.763)"
               fill="#3f5f94" />
            <path
               id="Path_539"
               data-name="Path 539"
               d="m 441.826,565.922 c -8.7,11.892 -22.33,22.286 -22.782,39.715 7.4,14.884 17,26.323 30.291,24.825 19.6,-2.207 26.375,-25.263 28.693,-46.371 -13.087,1.009 -29.762,-9.352 -36.202,-18.169 z"
               transform="translate(-393.077,-366.6)"
               fill="#e85766"
               style="fill:#eb5d1e;fill-opacity:1" />
            <path
               id="Path_540"
               data-name="Path 540"
               d="m 464.766,489.937 c -3.738,1.7 -16.985,13.248 -16.985,16.134 0,2.886 5.945,24.63 5.945,31.253 0,6.623 -6.072,35.486 -14.041,52.565 a 44.583,44.583 0 0 1 -4.506,7.391 c 6.44,8.817 23.115,19.177 36.2,18.169 a 230.107,230.107 0 0 0 1.182,-24.93 c 0,0 1.339,-48.28 3.527,-51.712 2,-3.133 1.981,-8.3 1.981,-12.7 v -8.947 c 0,0 3.042,-0.195 3.218,-5.424 0,-0.155 0.007,-0.315 0.007,-0.48 0.006,-5.693 -12.794,-23.018 -16.528,-21.319 z"
               transform="translate(-386.429,-397.957)"
               fill="#f5f7fa" />
          </g>
          <g
             id="Group_254"
             data-name="Group 254"
             transform="translate(312.425,24.15)">
            <g
               id="Group_250"
               data-name="Group 250"
               transform="translate(304.28)">
              <path
                 id="Path_541"
                 data-name="Path 541"
                 d="m 683.2,505.029 v 140.926 c 0,0 47.032,1.435 45.6,0 -1.432,-1.435 0,-65.474 0,-65.474 z"
                 transform="translate(-683.122,-371.441)"
                 fill="#6d8cc1" />
              <path
                 id="Path_542"
                 data-name="Path 542"
                 d="m 759.2,618.111 c 3.889,26.377 1.456,56.432 0,67.786 -1.456,11.354 -34.9,112.84 -34.9,112.84 h 81.533 l 22.45,-107.513 -29.8,-82.136 z"
                 transform="translate(-666.185,-328.564)"
                 fill="url(#linear-gradient)" />
              <path
                 id="Path_543"
                 data-name="Path 543"
                 d="m 761.148,618.111 c 3.889,26.377 1.456,56.432 0,67.786 -1.456,11.354 -41.568,113.7 -41.568,113.7 h 88.2 l 22.45,-108.368 -29.8,-82.136 z"
                 transform="translate(-668.131,-328.564)"
                 fill="#385483" />
              <path
                 id="Path_544"
                 data-name="Path 544"
                 d="m 841.378,595.673 c 12.01,37.645 65.834,49.818 50.985,110.626 -10.719,43.893 -32.581,98.822 -32.581,98.822 H 758.024 c 0,0 31.913,-95.7 31.913,-108.368 0,-12.668 -20.037,-77.8 -20.037,-77.8 z"
                 transform="translate(-652.291,-334.092)"
                 fill="#385483" />
              <path
                 id="Path_545"
                 data-name="Path 545"
                 d="m 699.675,482.454 c -12.012,5.724 -22.982,31.22 -12.012,55.154 10.97,23.934 12.532,19.656 16.695,38.446 4.163,18.79 2.526,29.2 36.905,52.61 34.379,23.41 33.338,29.658 34.9,41.626 1.562,11.968 98.34,9.366 96.78,-35.382 -1.56,-44.748 0.906,-96.421 -27.9,-120.794 -28.806,-24.373 -145.368,-31.66 -145.368,-31.66 z"
                 transform="translate(-683.144,-380.743)"
                 fill="#6d8cc1" />
              <path
                 id="Path_546"
                 data-name="Path 546"
                 d="m 686.344,443.215 v 134.316 c 0,0 48.765,-26.166 48.33,-51.767 -0.435,-25.601 -22.048,-82.549 -22.048,-82.549 z"
                 transform="translate(-681.826,-396.911)"
                 fill="#385483" />
              <path
                 id="Path_547"
                 data-name="Path 547"
                 d="m 710.6,508.535 c 0,0 6.493,10.511 8.7,15.028 2.207,4.517 -7.569,24.49 -4.348,41.61 3.221,17.12 24.4,14.2 29.139,0 1.426,-4.28 5.215,-34.653 5.215,-34.653 v -50.229 z"
                 transform="translate(-671.832,-381.634)"
                 fill="#becce3" />
              <path
                 id="Path_548"
                 data-name="Path 548"
                 d="m 719.294,523.563 c 13.7,-15.352 27.889,49.654 5.425,52.951 0.054,0.013 0.11,0.018 0.164,0.031 l 3.217,0.356 a 17.17,17.17 0 0 0 15.986,-11.728 c 1.426,-4.28 5.215,-34.653 5.215,-34.653 v -50.229 l -38.7,28.244 c 0,0 6.491,10.511 8.693,15.028 z"
                 transform="translate(-671.832,-381.634)"
                 fill="#becce3" />
              <path
                 id="Path_549"
                 data-name="Path 549"
                 d="m 691.075,451.234 c -6.663,41.322 0.664,79.417 20.59,83.929 19.926,4.512 48.49,-17.278 48.49,-36.5 0,-19.222 19.263,-69.314 -2.657,-80.749 -21.92,-11.435 -62.177,6.986 -66.423,33.32 z"
                 transform="translate(-680.865,-408.762)"
                 fill="#cdd8e9" />
              <path
                 id="Path_550"
                 data-name="Path 550"
                 d="m 708.785,449.129 c 0,0 -10.408,8.742 -18.042,13.279 -7.634,4.537 -5.764,-21.664 9.02,-33.977 14.784,-12.313 34.174,-22.795 42.034,-15.72 0,0 24.627,-6.812 39.563,18.34 14.936,25.152 15.982,47.685 20.7,53.972 4.718,6.287 12.576,10.218 8.909,22.008 0,0 26.2,-5.24 30.13,12.838 3.93,18.078 2.622,23.924 2.622,23.924 0,0 -8.143,-6.37 -24.843,-12.216 0,0 -11.248,8.859 -21.99,8.859 -10.742,0 -24.276,43.341 -43.139,43.341 l -0.158,-103.209 c 0,0 -42.615,-5.434 -44.806,-31.439 z"
                 transform="translate(-681.826,-410.422)"
                 fill="#385483" />
            </g>
            <g
               id="Group_252"
               data-name="Group 252"
               transform="translate(0,82.92)">
              <path
                 id="Path_551"
                 data-name="Path 551"
                 d="m 559.8,593.329 c -49.5,51.545 -92.141,208.779 -92.141,208.779 h 71.061 l 44.417,-104.389 z"
                 transform="translate(-467.655,-417.978)"
                 fill="#ffdf67"
                 style="fill:#fa9746;fill-opacity:1" />
              <path
                 id="Path_552"
                 data-name="Path 552"
                 d="m 791.249,612.956 c -10.357,-11.769 -65.522,-50.49 -135.855,-46.282 -62.017,3.712 -112.18,22.869 -121.958,37.769 -7.152,10.9 8.515,84.461 19.413,113.75 a 256.862,256.862 0 0 1 15.667,87.187 c 0,0 175.394,-1.021 176.416,0 1.022,1.021 21.8,-64.708 24.52,-97.4 2.72,-32.692 -3.406,-68.799 21.797,-95.024 z"
                 transform="translate(-441.295,-429.092)"
                 fill="#ffbf40"
                 style="fill:#eb5d1e;fill-opacity:1" />
              <path
                 id="Path_553"
                 data-name="Path 553"
                 d="m 668.354,523.356 c 0,0 0.875,54.51 0,70.783 -0.875,16.273 -26.1,30.917 -35.452,31.323 -9.352,0.406 -30.1,-13.424 -33.357,-36.611 v -49.223 z"
                 transform="translate(-413.311,-446.81)"
                 fill="#cdd8e9" />
              <path
                 id="Path_554"
                 data-name="Path 554"
                 d="m 668.684,552.972 c -0.109,-15.8 -0.33,-29.616 -0.33,-29.616 l -68.809,16.272 v 40.362 c 5.733,25.229 43.786,18.333 52.846,-5.576 5.192,-13.705 9.631,-17.775 16.293,-21.442 z"
                 transform="translate(-413.311,-446.81)"
                 fill="#becce3" />
              <path
                 id="Path_555"
                 data-name="Path 555"
                 d="m 586.663,522.506 c 2.584,39.938 18.862,78.6 44.653,74.523 31.99,-5.057 41.7,-53.571 40.439,-80.015 -1.261,-26.444 -16.33,-42.97 -39.266,-42.992 -21.818,-0.022 -48.013,14.671 -45.826,48.484 z"
                 transform="translate(-418.671,-467.137)"
                 fill="#cdd8e9" />
              <path
                 id="Path_556"
                 data-name="Path 556"
                 d="m 655.688,522.267 c -1.711,7.962 -5.586,14 -8.654,13.491 -3.068,-0.509 -4.168,-7.382 -2.457,-15.345 1.711,-7.963 5.586,-14 8.654,-13.492 3.068,0.508 4.169,7.379 2.457,15.346 z"
                 transform="translate(-395.089,-453.594)"
                 fill="#becce3" />
              <path
                 id="Path_557"
                 data-name="Path 557"
                 d="m 588.441,530.763 c -4.874,-7.457 -5.213,-10.388 -4.855,-22.773 0.358,-12.385 10.808,-12.82 10.589,-18.114 -0.219,-5.294 6.532,-19.514 34.106,-20.657 27.574,-1.143 25.918,11.494 34.457,12.317 8.539,0.823 21.781,9.582 15.333,40.936 0,0 -7.5,0.716 -10.449,15.867 a 1.36,1.36 0 0 1 -2.4,0.456 19.867,19.867 0 0 1 -2.528,-5.808 c -2.059,-7.573 -10.309,3.808 -11.807,-11.294 -1.068,-10.757 -27.322,8.988 -46.8,-8.468 0,0 -2.893,3.851 -11.19,3.6 -4.822,-0.134 -4.456,13.938 -4.456,13.938 z"
                 transform="translate(-419.929,-469.146)"
                 fill="#6d8cc1" />
              <g
                 id="Group_251"
                 data-name="Group 251"
                 transform="translate(162.641,139.844)">
                <path
                   id="Path_558"
                   data-name="Path 558"
                   d="m 606.413,634.317 c 0,0 2.271,2.9 6.511,-3.572 4.24,-6.472 18.745,-26.137 23.773,-24.2 l -0.021,-0.034 c -10.2,-2.12 -27.33,-15.38 -30.263,-36.282 v -1.689 c -8.114,1.13 -15.891,2.509 -23.282,4.074 -2.043,11.549 6.621,48.938 23.282,61.703 z"
                   transform="translate(-582.836,-568.036)"
                   fill="#ffbf40" />
                <path
                   id="Path_559"
                   data-name="Path 559"
                   d="m 657.329,575.668 c -0.761,14.15 -19.93,27.065 -31.069,30.461 v 0 c 5.258,-2.046 24.588,23.381 27.937,28.982 3.349,5.601 9.5,-1.98 15.623,-17.611 4.444,-11.349 11.313,-30.905 8.433,-44.714 a 197.881,197.881 0 0 0 -20.679,-4.6 c -0.06,2.938 -0.139,5.505 -0.245,7.482 z"
                   transform="translate(-564.944,-568.183)"
                   fill="#ffbf40" />
              </g>
              <path
                 id="Path_560"
                 data-name="Path 560"
                 d="m 605.715,573.2 v -11.855 c -10.282,4.516 -19.811,8.334 -20.859,14.218 -2.055,11.532 7.2,45.048 20.859,56.881 0,0 2.271,2.9 6.512,-3.573 4.241,-6.473 18.745,-21.3 23.773,-19.358 l -0.023,-0.034 C 625.773,607.361 608.648,594.1 605.715,573.2 Z"
                 transform="translate(-419.481,-431.156)"
                 fill="#ffdf67"
                 style="fill:#fa9746;fill-opacity:1" />
              <path
                 id="Path_561"
                 data-name="Path 561"
                 d="m 674.527,572.371 c -2.845,-6.439 -12.077,-11.671 -16.8,-13.907 -0.025,8.752 -0.131,16.551 -0.383,21.209 -0.761,14.15 -19.93,27.065 -31.069,30.461 v 0 c 5.258,-2.046 24.588,18.542 27.937,24.145 3.349,5.603 7.488,-0.927 14.288,-16.279 6.92,-15.626 10.67,-35.127 6.027,-45.629 z"
                 transform="translate(-402.298,-432.344)"
                 fill="#ffdf67"
                 style="fill:#fa9746;fill-opacity:1" />
              <path
                 id="Path_562"
                 data-name="Path 562"
                 d="m 762.387,759.1 c 0,-45.2 -13.169,-135.792 -34.057,-159.746 0,0 -32.7,17.488 -43.039,72.918 -3.091,16.56 2.17,63.879 3.533,83.86 z"
                 transform="translate(-378.375,-415.494)"
                 fill="#ffdf67"
                 style="fill:#fa9746;fill-opacity:1" />
              <path
                 id="Path_563"
                 data-name="Path 563"
                 d="m 649.531,763.712 h 99.213 c 14.7,0 30.5,-12 28.283,-44.5 -2.217,-32.5 -55.4,-27.944 -73.563,-2.968 l -54.664,8.35 z"
                 transform="translate(-393.015,-375.603)"
                 fill="#ffdf67"
                 style="fill:#fa9746;fill-opacity:1" />
              <path
                 id="Path_564"
                 data-name="Path 564"
                 d="m 631.646,755 4.692,-4.4 14.27,5.058 a 23.1,23.1 0 0 0 7.717,1.327 h 28.321 c 0,0 13.4,-2.871 13.839,-18.688 0.439,-15.817 -13.181,-20.43 -19.112,-20.43 h -31.052 a 22.671,22.671 0 0 1 -4.63,-0.479 l -22.081,-4.615 a 13.592,13.592 0 0 0 -9.552,1.519 l -12.514,7.189 a 31.607,31.607 0 0 0 -6.622,5.075 l -22.708,22.758 a 4.5,4.5 0 0 0 3.183,7.67 h 51.23 A 7.342,7.342 0 0 0 631.646,755 Z"
                 transform="translate(-425.118,-368.879)"
                 fill="#cdd8e9" />
            </g>
            <g
               id="Group_253"
               data-name="Group 253"
               transform="translate(187.09,136.559)">
              <path
                 id="Path_565"
                 data-name="Path 565"
                 d="m 846.934,509.63 c -21.267,-12.293 -58.542,22.67 -50.523,64 8.019,41.33 -37.368,92.6 -37.368,92.6 0,0 -51.443,20.656 -72.088,24.57 a 79.95,79.95 0 0 1 13.163,30.932 c 33.782,-2.782 82.253,-9.651 101.843,-25.976 29.608,-24.673 61.057,-115.656 61.065,-144.562 0.009,-33.636 -16.092,-41.564 -16.092,-41.564 z"
                 transform="translate(-564.384,-507.133)"
                 fill="#6d8cc1" />
              <path
                 id="Path_566"
                 data-name="Path 566"
                 d="m 717.341,637.843 h -66.508 c 0,0 -47.494,16.087 -48.728,18.838 -1.234,2.751 -3.7,19.111 0,22.958 3.7,3.847 27.757,10.633 33.926,9.4 6.169,-1.233 54.279,-19.12 65.382,-19.12 3.756,0 17.2,-0.357 34.472,-1.781 a 79.95,79.95 0 0 0 -13.163,-30.932 30.652,30.652 0 0 1 -5.381,0.637 z"
                 transform="translate(-600.151,-453.537)"
                 fill="#cdd8e9" />
            </g>
          </g>
          <g
             id="Group_256"
             data-name="Group 256">
            <path
               id="Path_567"
               data-name="Path 567"
               d="m 381.3,616.781 c 0,0 16.665,13.186 33.708,0 17.043,-13.186 5.3,-35.7 5.3,-35.7 L 381.3,601.858 Z"
               transform="translate(-190.811,-315.956)"
               fill="#6d8cc1" />
            <path
               id="Path_568"
               data-name="Path 568"
               d="m 407.683,518.86 v 98.6 h -32.062 v -93.2 z"
               transform="translate(-193.152,-341.592)"
               fill="#6d8cc1" />
            <g
               id="Group_255"
               data-name="Group 255"
               transform="translate(48.228,348.381)">
              <path
                 id="Path_569"
                 data-name="Path 569"
                 d="m 370.581,712.427 c -3.085,16.452 -20.62,39.563 -31.771,72.926 h 63.718 c 6.111,-40.083 11.631,-93.882 2.919,-141.7 h -36.741 c 3.394,16.115 4.777,53.295 1.875,68.774 z"
                 transform="translate(-256.547,-638.554)"
                 fill="#385483" />
              <path
                 id="Path_570"
                 data-name="Path 570"
                 d="m 318.035,708.86 c 0,0 7.375,35.8 12.413,76.493 h 16.922 c 11.151,-33.364 28.686,-56.475 31.771,-72.926 2.9,-15.479 1.517,-52.659 -1.875,-68.778 h -57.712 z"
                 transform="translate(-265.107,-638.554)"
                 fill="url(#linear-gradient-2)" />
              <path
                 id="Path_571"
                 data-name="Path 571"
                 d="m 392.71,645.136 a 34.706,34.706 0 0 0 -1.4,-5.095 H 280.552 c 1.526,53.31 5.727,106.363 8.252,146.8 h 74.011 c 11.151,-33.364 28.686,-56.475 31.771,-72.926 2.901,-15.48 1.514,-52.661 -1.876,-68.779 z"
                 transform="translate(-280.552,-640.041)"
                 fill="#3f5f94" />
            </g>
            <path
               id="Path_572"
               data-name="Path 572"
               d="m 368.35,458.236 c -65.515,-17.578 -109.765,11.671 -117.029,53.675 -6.635,38.362 41.534,157.149 41.534,205.185 0,0 77.655,40.03 148.9,5.095 0,0 -10.686,-50.947 0,-96.071 10.686,-45.124 24.893,-70.978 12.824,-103.349 -10.545,-28.281 -55.588,-56.313 -86.229,-64.535 z"
               transform="translate(-244.627,-368.715)"
               fill="#6d8cc1" />
            <path
               id="Path_573"
               data-name="Path 573"
               d="m 362.485,426.066 c 0,0 -24.729,31.1 -35.16,41.009 -10.431,9.909 8.818,30.189 23.424,38.8 9.647,5.685 29.992,12 23.992,-5.739 0,0 -3.389,-9.91 13.04,-23.993 10e-4,-0.005 -18.254,-54.511 -25.296,-50.077 z"
               transform="translate(-214.276,-379.933)"
               fill="#f5f7fa" />
            <path
               id="Path_574"
               data-name="Path 574"
               d="m 378.23,473.122 c 0,0 -8.464,-25.263 -16.089,-39.992 l -8.056,3.8 c -9.384,19.252 -11.068,55.524 11.1,60.184 0.005,0.001 -3.385,-9.908 13.045,-23.992 z"
               transform="translate(-204.725,-376.916)"
               fill="#cdd8e9" />
            <path
               id="Path_575"
               data-name="Path 575"
               d="m 362.145,428.546 c 2.094,-11.858 -8.5,-12.748 -11.826,-2.851 -3.8,11.308 0.387,19.145 4.737,16.534 0,0 -8.444,25.537 2.186,40.917 10.63,15.38 24.2,9.468 41.164,-7.238 14.588,-14.365 24.084,-31.915 25.558,-38.676 3.845,-17.641 -14.473,-31.909 -31.665,-30.984 -21.034,1.129 -30.154,22.298 -30.154,22.298 z"
               transform="translate(-204.188,-388.011)"
               fill="#f5f7fa" />
            <path
               id="Path_576"
               data-name="Path 576"
               d="m 359.986,433.856 c -0.662,6.981 0.48,12.391 4.586,10.013 4.106,-2.378 13.832,-16.425 22.693,-6.268 8.861,10.157 16.045,19.612 31.77,17.939 20.316,-2.16 25.027,-29.656 7.132,-34.579 0,0 7.78,-9.447 -6.051,-13.831 -12.663,-4.016 -13.17,-1.526 -22.032,-11.467 -5.1,-5.723 -35.672,-2.67 -44.009,28.739 0,-0.002 6.943,-1.425 5.911,9.454 z"
               transform="translate(-202.029,-393.32)"
               fill="#385483" />
            <path
               id="Path_577"
               data-name="Path 577"
               d="m 303.9,607.075 c 0.65,-13.66 9.1,-49.1 21.017,-71.747 11.917,-22.647 6.069,-51.765 -10.13,-63.165 -16.089,-11.323 -38.649,-9.314 -49.332,6.456 -28.729,42.406 -20.387,137.75 -4.894,169.928 3.075,6.39 10.493,10.541 20.555,13.036 -21.816,-9.963 0.057,-59.701 22.784,-54.508 z"
               transform="translate(-246.397,-363.792)"
               fill="#6d8cc1" />
            <path
               id="Path_578"
               data-name="Path 578"
               d="m 347.191,609.1 43.04,-52.079 A 7.4,7.4 0 0 1 397.9,554.6 l 73.021,20.122 a 2.366,2.366 0 0 1 0.956,4.036 l -55.231,49.856 a 4.79,4.79 0 0 1 -4.315,1.107 l -63.237,-14.955 a 3.52,3.52 0 0 1 -1.903,-5.666 z"
               transform="translate(-205.199,-326.974)"
               fill="#223553" />
            <path
               id="Path_579"
               data-name="Path 579"
               d="m 432.536,583.955 c -2.5,-7.151 -9.651,-12.513 -13.823,-13.705 -3.03,-0.866 -25.554,-0.474 -37.652,-0.195 a 26.027,26.027 0 0 0 -13.27,3.959 c -3.81,2.393 -8.563,5.045 -10.922,5.045 h -38.032 a 132.692,132.692 0 0 0 -22.443,-13.337 c -22.725,-5.193 -44.6,44.544 -22.785,54.508 36.676,9.095 109.063,-4.182 139.49,-14.579 a 33.328,33.328 0 0 0 16.772,-12.372 c 2.165,-3.131 3.638,-6.544 2.665,-9.324 z"
               transform="translate(-238.893,-322.439)"
               fill="#f5f7fa" />
          </g>
        </g>
        <line
           id="Line_7"
           data-name="Line 7"
           x2="977.61499"
           transform="translate(84.242,638.22)"
           fill="#223553"
           x1="0"
           y1="0"
           y2="0" />
        <g
           id="Group_258"
           data-name="Group 258"
           transform="translate(356.751,475.242)">
          <path
             id="Path_580"
             data-name="Path 580"
             d="m 567.848,754.455 h 104.207 a 10.818,10.818 0 0 0 10.819,-10.819 v 0 a 4.934,4.934 0 0 0 -4.934,-4.935 H 567.848 a 4.935,4.935 0 0 0 -4.935,4.935 v 5.884 a 4.936,4.936 0 0 0 4.935,4.935 z"
             transform="translate(-324.418,-583.183)"
             fill="#223553" />
          <path
             id="Path_581"
             data-name="Path 581"
             d="m 453,799.836 h 217.668 a 12.719,12.719 0 0 0 12.265,-16.089 L 644.514,643.895 a 20.854,20.854 0 0 0 -20.11,-15.331 H 406.739 a 12.72,12.72 0 0 0 -12.265,16.089 l 38.419,139.853 A 20.855,20.855 0 0 0 453,799.836 Z"
             transform="translate(-394.012,-628.564)"
             fill="#223553" />
        </g>
        <g
           id="Group_265"
           data-name="Group 265"
           transform="translate(923.064,486.122)">
          <g
             id="Group_262"
             data-name="Group 262">
            <g
               id="Group_259"
               data-name="Group 259"
               transform="translate(63.176,52.12)">
              <path
                 id="Path_582"
                 data-name="Path 582"
                 d="m 907.728,673.18 c -3.286,0.891 -7.835,4.527 -12.854,9.353 -5.093,4.788 -10.606,10.467 -17.54,15.655 -4.214,3.253 -8.382,6.2 -12.4,9.071 -3.931,2.933 -7.834,5.671 -11.209,8.474 -6.864,5.491 -12.105,10.909 -13.911,14.979 1.806,-4.026 2.574,-11.5 6,-20.555 a 66.345,66.345 0 0 1 7.275,-14.146 59.47,59.47 0 0 1 12.571,-13.268 47.968,47.968 0 0 1 25.452,-9.13 c 7.572,-0.632 13.36,0.461 16.616,-0.433 z"
                 transform="translate(-839.813,-673.18)"
                 fill="#dce5f2" />
            </g>
            <g
               id="Group_260"
               data-name="Group 260"
               transform="translate(56.299)">
              <path
                 id="Path_583"
                 data-name="Path 583"
                 d="m 839.129,742.875 c 0.32,-4.053 -1.661,-10.562 -2.972,-19.142 a 81.647,81.647 0 0 1 0.542,-30.86 c 3.249,-14.191 9.455,-26.223 15.4,-35.562 5.925,-9.389 11.526,-16.182 13.669,-21.042 -2.149,4.87 -3.308,13.613 -4.554,24.3 -1.292,10.706 -2.594,23.3 -5.637,36.586 -2.447,10.874 -6.388,20.083 -9.822,27.807 -3.455,7.699 -6.307,13.852 -6.626,17.913 z"
                 transform="translate(-834.943,-636.269)"
                 fill="#dce5f2" />
            </g>
            <g
               id="Group_261"
               data-name="Group 261"
               transform="translate(0,36.507)">
              <path
                 id="Path_584"
                 data-name="Path 584"
                 d="m 795.072,662.123 c 3.26,1.517 9.506,1.546 17.238,3.859 a 52.354,52.354 0 0 1 24.543,14.89 67.239,67.239 0 0 1 15.556,32.343 c 1.958,10.1 1.4,18.059 2.389,22.652 -0.986,-4.657 -5.212,-11.44 -11.193,-18.626 -5.922,-7.3 -13.571,-14.866 -21.143,-23.414 -6.281,-6.906 -11.02,-13.889 -15.5,-19.774 -4.385,-5.927 -8.584,-10.408 -11.89,-11.93 z"
                 transform="translate(-795.072,-662.123)"
                 fill="#dce5f2" />
            </g>
          </g>
          <g
             id="Group_264"
             data-name="Group 264"
             transform="translate(26.4,80.573)">
            <g
               id="Group_263"
               data-name="Group 263">
              <path
                 id="Path_585"
                 data-name="Path 585"
                 d="m 885.932,695.281 h -64.255 a 5.688,5.688 0 0 0 -5.647,6.36 l 7.838,65.692 a 5.687,5.687 0 0 0 5.647,5.013 h 48.578 a 5.687,5.687 0 0 0 5.647,-5.013 l 7.837,-65.692 a 5.686,5.686 0 0 0 -5.645,-6.36 z"
                 transform="translate(-812.854,-692.526)"
                 fill="#dce5f2" />
              <path
                 id="Path_586"
                 data-name="Path 586"
                 d="m 813.788,696.324 2.9,24.324 a 2.676,2.676 0 0 0 2.657,2.361 h 70.745 a 2.677,2.677 0 0 0 2.657,-2.361 l 2.9,-24.324 a 2.676,2.676 0 0 0 -2.657,-2.994 h -76.544 a 2.678,2.678 0 0 0 -2.658,2.994 z"
                 transform="translate(-813.769,-693.33)"
                 fill="#adbfdc" />
            </g>
          </g>
        </g>
      </g>
    </g>
  </g>
</svg>
