<?xml version="1.0" standalone="yes"?>
<svg width="1146" height="716">
<path style="fill:#ffffff; stroke:none;" d="M0 0L0 716L1146 716L1146 0L0 0z"/>
<path style="fill:#fed287; stroke:none;" d="M591 83L591 84L611 84L591 83z"/>
<path style="fill:#ffb93f; stroke:none;" d="M569 415L570 415L578 413C575.811 362.001 557.023 311.892 553 261C561.92 258.911 567.044 255.136 574 264C582.887 261.649 587.216 262.418 594 269L595 269C605.85 259.777 608.661 262.807 620 268C626.788 259.669 640.82 262.563 651 263L624 413C630.822 413 637.393 413.261 644 411.279C684.615 399.093 666.615 346.175 675.158 315C681.546 291.691 699.837 276.356 709.691 255C731.636 207.439 722.047 151.408 684 115.039C620.278 54.1282 498.485 87.7429 485.3 179C481.254 207.004 484.562 235.978 498.312 261C509.006 280.461 524.046 294.995 530.29 317C537.041 340.791 526.638 371.251 537.821 393C541.669 400.484 548.279 406.597 556 409.956C560.32 411.836 566.359 410.926 569 415z"/>
<path style="fill:#ffdfac; stroke:none;" d="M578 85L578 86L581 86L578 85z"/>
<path style="fill:#fddea7; stroke:none;" d="M624 85L624 86L627 86L624 85z"/>
<path style="fill:#ffeac5; stroke:none;" d="M637 117.654C624.375 121.551 623.503 134.933 628.518 145C634.124 156.25 647.805 162.887 660 158.941C686.283 150.437 657.614 111.289 637 117.654z"/>
<path style="fill:#dfedfa; stroke:none;" d="M714 125C712.389 133.304 711.014 135.64 703 138C710.981 156.52 719.835 172.38 721.83 193C722.645 201.418 721.069 209.635 721 218C724.009 217.74 727.943 216.156 730.83 217.363C734.935 219.08 736.774 224.757 741.999 222.522C752.227 218.148 745.442 213.574 745.219 206.285C745.118 202.997 748.664 198.654 750.464 196.059C753.899 191.105 759.949 194.201 762.972 190.397C765.156 187.648 764.685 181.16 764 178L762 179C757.53 173.77 749.837 169.789 751.351 160.514C752.172 155.489 761.117 153.994 759.007 147.961C754.093 133.909 745.4 147.524 737 143.905C733.707 142.487 729.526 140.645 728.434 136.945C727.503 133.793 729.299 128.327 726.397 126.028C723.611 123.821 717.357 125 714 125z"/>
<path style="fill:#9fc4f9; stroke:none;" d="M817 147C818.312 155.115 832.815 160.726 840 163L840 162L817 147z"/>
<path style="fill:#9dc2f6; stroke:none;" d="M804 160L839 165C833.16 160.936 805.948 151.08 804 160z"/>
<path style="fill:#d1dffc; stroke:none;" d="M838 166L844 166C841.546 163.703 840.454 163.703 838 166z"/>
<path style="fill:#f5c97e; stroke:none;" d="M484 183L484 188L485 188L484 183z"/>
<path style="fill:#9ec3f8; stroke:none;" d="M384 186L353 215L405 201L402 194L359 212L387 192L384 186z"/>
<path style="fill:#f6c974; stroke:none;" d="M483 190L483 211L484 211L483 190z"/>
<path style="fill:#eed090; stroke:none;" d="M721 190L721 211L722 211L721 190z"/>
<path style="fill:#cde2fd; stroke:none;" d="M844.278 194.042C838.212 197.657 841.737 208.3 833.956 210.566C829.189 211.955 812.436 215.203 808.04 213.647C803.937 212.196 802.729 207.236 799.482 204.746C794.673 201.059 784.039 207.116 780.448 210.789C775.088 216.27 783.84 223.78 783.803 229.715C783.777 233.984 776.411 243.641 773.39 246.682C767.386 252.728 754.62 243.289 751.032 252.059C749.192 256.554 746.492 267.634 751.232 270.861C755.64 273.862 762.851 272.951 766.397 277.303C769.331 280.905 769.984 291.313 770.786 295.999C772.44 305.666 755.765 305.947 759.371 316C760.113 318.068 761.265 320.04 762.247 322C769.989 337.459 775.527 323.485 787.576 324.262C791.671 324.527 798.646 330.285 801.707 332.954C808.364 338.761 799.787 349.209 804.028 355.686C806.601 359.617 817.698 360.499 821.956 359.848C829.082 358.758 828.161 348.074 831.278 343.148C833.978 338.88 841.451 338.868 846 338.444C855.087 337.599 854.862 347.496 861.326 350.929C865.501 353.147 873.491 347.91 876.941 345.648C886.664 339.275 872.669 329.848 877.534 322C880.182 317.728 886.351 308.496 891.093 306.603C896.014 304.639 904.321 309.7 907.836 304.682C910.66 300.649 913.159 287.365 908.682 283.938C905.496 281.498 900.424 282.302 898.028 278.606C895.564 274.806 894.311 261.576 894.757 257.015C895.518 249.23 908.077 249.044 909.638 241.816C910.618 237.279 905.499 228.434 902.387 225.322C895.763 218.695 886.425 231.789 879 229.107C873.529 227.131 864.458 220.122 864.073 213.999C863.764 209.082 866.589 202.996 864.397 198.279C862.544 194.292 847.87 191.902 844.278 194.042z"/>
<path style="fill:#f8d699; stroke:none;" d="M717 232L717 235L718 235L717 232z"/>
<path style="fill:#eaf3fa; stroke:none;" d="M827 240.439C781.284 247.635 793.5 317.594 839 309.671C882.447 302.106 870.095 233.656 827 240.439z"/>
<path style="fill:#fdce7e; stroke:none;" d="M560 257L560 258L566 258L560 257z"/>
<path style="fill:#ffeac5; stroke:none;" d="M553 261C555.188 311.956 573.984 362.121 578 413L584 413C576.533 374.496 571.744 335.529 564.54 297C562.862 288.028 561.846 278.89 559.742 270C559.004 266.883 557.694 262.18 561.188 260.219C564.639 258.282 570.601 261.004 571.13 265.019C571.643 268.915 562.672 282.704 572.975 282.704C581.137 282.704 577.358 269.283 576 265C577.921 264.396 579.959 263.55 582.005 263.539C599.864 263.447 581.534 286.196 595.945 286.623C600.096 286.747 600.233 282.046 599.786 279C598.804 272.326 597.176 263.177 608 263.442C625.419 263.87 604.593 285.049 615.147 287.663C626.538 290.484 616.905 267.742 626.991 264.175C628.728 263.561 630.813 264.09 631.13 266.153C631.765 270.3 626.929 273.374 628.619 277.941C630.048 281.802 635.549 283.092 637.397 278.852C639.127 274.881 637.213 269.828 636 266L645 263C644.69 278.043 640.389 293.297 637.449 308C630.592 342.289 621.753 378.175 619 413C629.083 412.196 628.516 387.171 630.349 379C635.381 356.577 638.345 333.617 642.424 311C645.294 295.089 649.727 279.131 651 263C641.555 262.255 625.146 258.46 620 268C611.03 261.898 602.957 259.397 595 269L594 269C588.694 261.691 582.088 261.052 574 264C569.459 255.266 560.375 258.382 553 261z"/>
<path style="fill:#ffb93f; stroke:none;" d="M619 413L637.261 310L645 263L636 266C636.838 269.668 638.862 274.205 637.393 277.941C635.751 282.113 630.946 281.81 629.072 277.941C626.763 273.175 633.409 269.584 631.694 265.319C630.783 263.05 627.826 263.2 626 264.047C616.81 268.312 622.875 274.899 621.848 281.995C621.387 285.183 618.777 288.559 615.147 287.338C605.562 284.113 626.295 261.421 607 263.258C596.074 264.298 597.815 271.697 599.848 279C600.673 281.964 599.909 286.346 595.96 286.248C582.08 285.905 600.645 262.928 582.005 263.289C579.824 263.331 577.963 264.173 576 265C576.905 268.958 581.023 282.793 572.975 282.793C562.666 282.793 572.174 268.366 571.887 265.019C571.488 260.363 563.966 257.738 560.333 260.183C556.623 262.679 559.467 269.613 560.255 273C563.069 285.081 564.594 297.746 566.562 310C570.636 335.366 574.663 360.725 579.389 386C580.511 392 579.725 407.992 584.738 411.972C586.992 413.761 591.327 413 594 413L619 413z"/>
<path style="fill:#ffd58d; stroke:none;" d="M606 261L606 262L611 262L606 261z"/>
<path style="fill:#feba3f; stroke:none;" d="M573 267C571.682 269.353 566.9 280.124 572.259 281.079C578.01 282.103 575.624 269.621 575 267L573 267z"/>
<path style="fill:#ffba40; stroke:none;" d="M633 268C630.421 273.132 628.411 278.479 635 281L635 268L633 268z"/>
<path style="fill:#ffce77; stroke:none;" d="M576 272L576 278L577 278L576 272z"/>
<path style="fill:#ffb93f; stroke:none;" d="M594 272C585.009 288.051 606.845 284.722 594 272z"/>
<path style="fill:#ffb940; stroke:none;" d="M618 272L613 286C622.086 285.892 622.296 278.838 618 272z"/>
<path style="fill:#fed07a; stroke:none;" d="M636 273L636 278L637 278L636 273z"/>
<path style="fill:#fccf7a; stroke:none;" d="M569 274L569 280L570 280L569 274z"/>
<path style="fill:#dfedfa; stroke:none;" d="M359 344C362.602 341.351 366.351 336.332 371.015 335.658C375.109 335.066 379.886 337.418 384 337.829C396.522 339.082 413.139 339.063 422.787 329.671C433.94 318.814 429.933 295.354 419.56 285.478C405.808 272.386 371.274 272.854 359.85 289.039C353.763 297.663 353.717 310.383 357.329 320C358.613 323.418 361.732 326.418 362.406 330C363.22 334.333 359.653 339.64 359 344z"/>
<path style="fill:#ffd080; stroke:none;" d="M600 280L600 284L601 284L600 280z"/>
<path style="fill:#fecb7a; stroke:none;" d="M571 283L571 284L575 284L571 283z"/>
<path style="fill:#4f5f81; stroke:none;" d="M179 304L179 305L187 305L179 304z"/>
<path style="fill:#233863; stroke:none;" d="M173 340C175.391 334.521 180.126 325.386 185.148 321.858C189.784 318.601 197.684 322.169 200.257 315.942C203.295 308.591 194.428 306.456 189 305.379C176.338 302.866 162.396 310.361 165.279 325C166.336 330.371 170.7 335.079 173 340z"/>
<path style="fill:#a5b2c3; stroke:none;" d="M195 307L195 308L198 308L195 307z"/>
<path style="fill:#90a2b6; stroke:none;" d="M199 308L199 309L201 314L202 314L202 308L199 308z"/>
<path style="fill:#f2dca3; stroke:none;" d="M528.333 310.667L528.667 311.333L528.333 310.667z"/>
<path style="fill:#98a4ba; stroke:none;" d="M310 313L310 314L316 314L310 313z"/>
<path style="fill:#163561; stroke:none;" d="M282 376C287.449 373.575 304.183 367.693 307.012 362.941C310.849 356.496 308.298 347.928 308 341C316.98 339.833 321.549 335.233 325 327C333.482 333.122 336.658 352.244 324 356C324.043 368.272 331.832 366.614 339.957 372.649C344.354 375.915 346.095 381.09 348 386C361.353 379.265 345.872 363.896 342.313 356C338.131 346.722 341.921 336.259 337.586 327C328.581 307.762 305.87 311.326 296.065 327C292.117 333.31 288.613 339.986 286.089 347C282.568 356.781 282 365.717 282 376z"/>
<path style="fill:#a0b1c1; stroke:none;" d="M323.667 314.333L324.333 314.667L323.667 314.333z"/>
<path style="fill:#6e8098; stroke:none;" d="M165.333 316.667L165.667 317.333L165.333 316.667z"/>
<path style="fill:#f5d6a7; stroke:none;" d="M530 317L530 320L531 320L530 317z"/>
<path style="fill:#91a0b5; stroke:none;" d="M331 318L332 319L331 318z"/>
<path style="fill:#bbc8d8; stroke:none;" d="M164 319L164 325L165 325L164 319z"/>
<path style="fill:#899ab8; stroke:none;" d="M332 319L333 320L332 319z"/>
<path style="fill:#ffb27e; stroke:none;" d="M173 354L169 354L169 355L189 361L192 352C184.149 351.93 178.716 349.142 175 342L193 346L198 339L194 349L203 350L205 339L199 339C199 334.637 200.79 325.161 197.972 321.603C190.908 312.684 179.231 327.874 176.012 332.495C172.621 337.363 173.249 348.206 173 354z"/>
<path style="fill:#7a8ea9; stroke:none;" d="M335 323L336 324L335 323z"/>
<path style="fill:#97a9c1; stroke:none;" d="M296 326L297 327L296 326z"/>
<path style="fill:#f1deb3; stroke:none;" d="M672 326L672 332L673 332L672 326z"/>
<path style="fill:#ffb27e; stroke:none;" d="M325 327C321.122 333.544 317.171 340.09 309 341C309.026 350.443 311.85 363.662 300 367C306.395 378.658 322.614 375.452 332 370L312 352C316.027 354.111 324.025 357.177 328.298 353.972C336.087 348.13 332.662 330.662 325 327z"/>
<path style="fill:#8b9cae; stroke:none;" d="M166 328L167 329L166 328z"/>
<path style="fill:#7487a8; stroke:none;" d="M339.333 332.667L339.667 333.333L339.333 332.667z"/>
<path style="fill:#f6ce86; stroke:none;" d="M671 332L671 381L672 381C672 367.212 676.309 344.652 671 332z"/>
<path style="fill:#a38376; stroke:none;" d="M174 333L174 338L175 338L174 333z"/>
<path style="fill:#8997b1; stroke:none;" d="M292 333L293 334L292 333z"/>
<path style="fill:#b0c3d4; stroke:none;" d="M340 335L340 350L341 350L340 335z"/>
<path style="fill:#6f646c; stroke:none;" d="M332 336L332 342L333 342L332 336z"/>
<path style="fill:#fbc66a; stroke:none;" d="M533 336L533 379L534 379C534 366.781 537.711 347.225 533 336z"/>
<path style="fill:#e2915a; stroke:none;" d="M193 346L175 342C176.896 347.561 186.28 356.444 192.397 350.397C194.912 347.911 195.992 342.192 198 339L193 346z"/>
<path style="fill:#716766; stroke:none;" d="M311 340L311 341L314 341L311 340z"/>
<path style="fill:#856e74; stroke:none;" d="M308 341L308 347L309 347L308 341z"/>
<path style="fill:#fbffff; stroke:none;" d="M323 348L323 350L329 350L329 348L323 348z"/>
<path style="fill:#fa9746; stroke:none;" d="M189 361C180.991 360.999 176.819 356.001 169.91 355.188C166.455 354.781 162.237 355.98 159 357.101C156.243 358.055 153.439 359.35 151.005 360.966C133.385 372.66 157.824 393.248 156.91 407C156.091 419.333 154.58 431.652 154.039 444C153.885 447.522 152.775 454.469 155.603 457.142C159.621 460.939 169.787 460.601 175 461.438C193.016 464.332 228.886 467.76 217.772 439.228C216.063 434.842 207.987 434.537 204 433.525C192.757 430.674 181.679 426.917 173 419L217 422L217 429L218 429L218 422C232.958 421.988 231.745 410.172 230.91 398C229.648 379.576 224.644 355.944 203 355C201.968 341.752 190.29 353.743 189 361z"/>
<path style="fill:#887372; stroke:none;" d="M309 349L309 354L310 354L309 349z"/>
<path style="fill:#586b8c; stroke:none;" d="M340.333 350.667L340.667 351.333L340.333 350.667z"/>
<path style="fill:#6e86a8; stroke:none;" d="M284.333 351.667L284.667 352.333L284.333 351.667z"/>
<path style="fill:#e99358; stroke:none;" d="M312 352C314.527 357.37 318.487 359.386 324 361L324 356L328 356L328 355L312 352z"/>
<path style="fill:#8ea2bd; stroke:none;" d="M341.333 353.667L341.667 354.333L341.333 353.667z"/>
<path style="fill:#efd0b3; stroke:none;" d="M164.667 355.333L165.333 355.667L164.667 355.333z"/>
<path style="fill:#f4ccb2; stroke:none;" d="M208 355L208 356L211 356L208 355z"/>
<path style="fill:#8091ad; stroke:none;" d="M282.333 358.667L282.667 359.333L282.333 358.667z"/>
<path style="fill:#877575; stroke:none;" d="M308.333 358.667L308.667 359.333L308.333 358.667z"/>
<path style="fill:#fed07b; stroke:none;" d="M569 358L569 362L570 362L569 358z"/>
<path style="fill:#ed7d2b; stroke:none;" d="M202 362C198.513 374.05 190.765 403.66 176 406.302C170.778 407.236 164.626 402.923 160 401C164.576 409.413 177.595 416.504 185.985 409.656C196.045 401.446 207.273 374.928 202 362z"/>
<path style="fill:#738ba3; stroke:none;" d="M281 362L281 366L282 366L281 362z"/>
<path style="fill:#8193a9; stroke:none;" d="M345 362L346 363L345 362z"/>
<path style="fill:#3f637d; stroke:none;" d="M281 366L281 373L282 373L281 366z"/>
<path style="fill:#68656e; stroke:none;" d="M298.667 367.333L299.333 367.667L298.667 367.333z"/>
<path style="fill:#8c9db7; stroke:none;" d="M349 367L350 368L349 367z"/>
<path style="fill:#f3c5a1; stroke:none;" d="M144 368L144 373L145 373L144 368z"/>
<path style="fill:#959396; stroke:none;" d="M294.667 368.333L295.333 368.667L294.667 368.333z"/>
<path style="fill:#faddbf; stroke:none;" d="M299 395L326 417L326 418L318 428L326 430L326 427L330 429L331 429C338.004 423.05 340.225 416.484 341 407C346.299 411.881 347.692 420.214 354.093 423.921C365.474 430.513 378.834 414.355 378 404L357 408L350 387C345.709 380.76 342.831 368.896 333 369.827C326.645 370.429 321.901 375.286 315 374.892C308.134 374.5 302.699 367.736 296 368.523C281.233 370.258 276.272 390.533 271.603 402C269.874 406.248 266.995 411.29 267.227 416C267.713 425.892 283.005 431.679 291 433.841C293.855 434.613 300.126 436.351 301.824 432.683C304.751 426.36 287.553 419.38 286.769 413C286.07 407.309 296.443 399.93 299 395z"/>
<path style="fill:#695e6e; stroke:none;" d="M330.667 368.333L331.333 368.667L330.667 368.333z"/>
<path style="fill:#8da1ba; stroke:none;" d="M351 370L352 371L351 370z"/>
<path style="fill:#8195ad; stroke:none;" d="M878 372L878 373L884 373L878 372z"/>
<path style="fill:#a0b0c7; stroke:none;" d="M281.333 373.667L281.667 374.333L281.333 373.667z"/>
<path style="fill:#163561; stroke:none;" d="M853 422L873 418L873 414C862.079 408.797 861.039 397.626 865 388L867 388C870.952 396.086 879.369 393.928 884.397 399.514C889.442 405.12 883.969 415.683 892.109 420.291C896.018 422.504 902.906 427.637 907 428.539C912.497 429.751 916.637 421.483 915.551 417C913.857 410.005 905.654 406.788 901.994 400.996C896.556 392.393 897.946 382.119 888.985 375.434C884.135 371.816 878.399 373.055 873 374.421C851.724 379.804 853 403.976 853 422z"/>
<path style="fill:#536a8c; stroke:none;" d="M353 374L353 380L354 380L353 374z"/>
<path style="fill:#f5c199; stroke:none;" d="M145 376L145 379L146 379L145 376z"/>
<path style="fill:#f1c6a4; stroke:none;" d="M226.333 376.667L226.667 377.333L226.333 376.667z"/>
<path style="fill:#82808e; stroke:none;" d="M282.667 376.333L283.333 376.667L282.667 376.333z"/>
<path style="fill:#b6453d; stroke:none;" d="M406 456C409.099 446.491 412.767 433.869 421.015 427.557C425.609 424.042 436.594 424.097 439.428 419.682C442.744 414.517 441.314 406.81 442 401C450.683 400.976 457.109 398.255 464 393C467.147 401.443 467.853 417.127 456 419L455 424C461.946 424.696 468.342 427.803 473 433C477.79 427.951 478.146 419.669 477.985 413C477.543 394.65 468.707 371.451 446 376.398C427.39 380.452 432.144 404.523 420.957 414.7C410.771 423.966 390.032 441.402 406 456z"/>
<path style="fill:#d9a7a8; stroke:none;" d="M452 376L452 377L456 377L452 376z"/>
<path style="fill:#8a9eb9; stroke:none;" d="M890 376L891 377L890 376z"/>
<path style="fill:#d2a4a6; stroke:none;" d="M459.667 377.333L460.333 377.667L459.667 377.333z"/>
<path style="fill:#8ea3b4; stroke:none;" d="M891 377L892 378L891 377z"/>
<path style="fill:#9aa9bc; stroke:none;" d="M862 378L863 379L862 378z"/>
<path style="fill:#f4cf89; stroke:none;" d="M670 382L670 385L671 385L670 382z"/>
<path style="fill:#ed7d2b; stroke:none;" d="M215 383L213 405L223 405C222.676 397.575 220.367 388.356 215 383z"/>
<path style="fill:#d4e5f9; stroke:none;" d="M728 426L728 427C718.269 431.045 710.583 433.337 700 432C701.739 436.175 703.821 440.166 706.229 444C707.947 446.734 709.789 449.466 712.174 451.671C728.468 466.739 744.866 442.251 763 448L763 450C757.682 451.002 752.327 451.556 747 452.439C743.005 453.102 724.204 460.688 730.623 466.91C733.522 469.722 740.223 469.893 744 469.985C754.503 470.243 771.577 471.026 777 460L781 463L778 456L783 456C782.074 447.624 791.831 443.826 795.637 437C803.902 422.174 789.872 407.005 776 403C776.599 410.592 782.209 426.473 774 431L771.397 400.394L763 395.4L736 388L748 415C736.936 409.257 732.227 389.774 720.91 386.434C701.88 380.816 679.21 402.025 694.638 419.772C700.495 426.509 719.44 423.594 728 426z"/>
<path style="fill:#ffb27e; stroke:none;" d="M865 388C860.287 396.567 862.22 410.908 873 414C872.998 417.648 871.152 424.556 873.067 427.681C876.407 433.132 887.022 427.016 888.929 422.957C890.37 419.89 887.018 403.633 885.397 400.317C883.019 395.456 871.087 393.536 867 388L865 388z"/>
<path style="fill:#9fb1bd; stroke:none;" d="M898 391L898 394L899 394L898 391z"/>
<path style="fill:#ffb27e; stroke:none;" d="M463 393C456.504 397.953 450.236 400.931 442 401C441.999 406.85 438.251 416.578 439.788 421.786C441.755 428.453 451.875 427.571 455 423C449.705 421.513 446.684 417.643 444 413C447.83 416.137 454.493 420.53 459.787 418.382C467.639 415.195 467.901 398.23 463 393z"/>
<path style="fill:#c68988; stroke:none;" d="M474.333 393.667L474.667 394.333L474.333 393.667z"/>
<path style="fill:#967876; stroke:none;" d="M861 394L861 399L862 399L861 394z"/>
<path style="fill:#b6453d; stroke:none;" d="M299 395C295.461 399.648 287.014 405.927 286.465 412C285.758 419.83 304.287 434.261 311.996 432.223C317.625 430.735 322.49 422.314 326 418C319.935 409.76 308.373 399.177 299 395z"/>
<path style="fill:#677f99; stroke:none;" d="M854.333 395.667L854.667 396.333L854.333 395.667z"/>
<path style="fill:#d09996; stroke:none;" d="M475.333 396.667L475.667 397.333L475.333 396.667z"/>
<path style="fill:#947a6d; stroke:none;" d="M879 397L879 398L882 398L879 397z"/>
<path style="fill:#b2bdd1; stroke:none;" d="M853.333 398.667L853.667 399.333L853.333 398.667z"/>
<path style="fill:#f4b886; stroke:none;" d="M231 399L231 412L232 412L231 399z"/>
<path style="fill:#ffae7c; stroke:none;" d="M378 408L395 405L395 404L386 403L386 402L389 400C383.182 400.27 378.507 401.584 378 408z"/>
<path style="fill:#dc7a5d; stroke:none;" d="M466 400L466 406L467 406L466 400z"/>
<path style="fill:#ce9da0; stroke:none;" d="M476.333 400.667L476.667 401.333L476.333 400.667z"/>
<path style="fill:#5d7695; stroke:none;" d="M853.333 400.667L853.667 401.333L853.333 400.667z"/>
<path style="fill:#f1be91; stroke:none;" d="M156 401L156 411L157 411L156 401z"/>
<path style="fill:#7087a6; stroke:none;" d="M902 402L903 403L902 402z"/>
<path style="fill:#f2dbcb; stroke:none;" d="M388 403L388 404L392 404L388 403z"/>
<path style="fill:#c7817f; stroke:none;" d="M427.333 404.667L427.667 405.333L427.333 404.667z"/>
<path style="fill:#d6795a; stroke:none;" d="M441 404L441 409L442 409L441 404z"/>
<path style="fill:#ce979a; stroke:none;" d="M477 404L477 408L478 408L477 404z"/>
<path style="fill:#465e82; stroke:none;" d="M852 406L852 417L853 417L852 406z"/>
<path style="fill:#92a0bb; stroke:none;" d="M906 406L907 407L906 406z"/>
<path style="fill:#ffb17e; stroke:none;" d="M164 407C164.956 414.301 172.351 422.774 177 413L164 407z"/>
<path style="fill:#f3ccab; stroke:none;" d="M341 407C339.175 420.55 342.876 426.873 358 427L341 407z"/>
<path style="fill:#f2d2b9; stroke:none;" d="M381 407L381 408L390 408L381 407z"/>
<path style="fill:#93aaba; stroke:none;" d="M911 410L912 411L911 410z"/>
<path style="fill:#94a6bc; stroke:none;" d="M912 411L913 412L912 411z"/>
<path style="fill:#d69380; stroke:none;" d="M285.333 412.667L285.667 413.333L285.333 412.667z"/>
<path style="fill:#f8ca7d; stroke:none;" d="M563 412L563 413L569 413L563 412z"/>
<path style="fill:#ee955d; stroke:none;" d="M444 413C445.257 416.245 446.971 419.442 450.035 421.377C451.378 422.225 455.664 423.211 455.079 420.154C454.548 417.381 446.349 414.413 444 413z"/>
<path style="fill:#ed7d2b; stroke:none;" d="M570 413L571 425L613 414C601.774 409.29 582.219 413 570 413z"/>
<path style="fill:#fa9746; stroke:none;" d="M571 425L572 432L635 414C615.596 405.858 590.219 422.41 571 425z"/>
<path style="fill:#ecd2c1; stroke:none;" d="M635 413L635 418L636 418L635 413z"/>
<path style="fill:#af876e; stroke:none;" d="M887.333 413.667L887.667 414.333L887.333 413.667z"/>
<path style="fill:#ed7d2b; stroke:none;" d="M634 414L590 426.964L573.042 432.728L574 444L634 427L634 414z"/>
<path style="fill:#ecc7ad; stroke:none;" d="M569 415L569 418L570 418L569 415z"/>
<path style="fill:#c9daf4; stroke:none;" d="M817 450L816 450L816 429C808.403 431.236 790.408 446.975 802.419 454.972C808.045 458.718 822.345 456 829 456L831 463C842.823 456.146 842.761 446.045 846.812 435C848.485 430.438 851.612 426.72 853 422L838 437L847 417C840.403 417.288 822.599 420.47 819.603 427.225C816.806 433.533 818.966 443.003 817 450z"/>
<path style="fill:#91a7b4; stroke:none;" d="M852.333 417.667L852.667 418.333L852.333 417.667z"/>
<path style="fill:#f1d6c1; stroke:none;" d="M155 418L155 424L156 424L155 418z"/>
<path style="fill:#bcaea3; stroke:none;" d="M864 418L864 419L873 419L864 418z"/>
<path style="fill:#ed7d2b; stroke:none;" d="M173 419C182.282 431.02 203.873 434.259 218 437L217 422L173 419z"/>
<path style="fill:#faddbf; stroke:none;" d="M841 488C852.379 481.615 864.442 480.808 877 478.46C880.645 477.778 889.554 478.452 891.972 475.397C894.906 471.69 893 461.558 893 457L915 447C912.943 432.704 903.229 423.754 890 420C884.921 430.793 872.448 433.005 873 419C863.048 419 843.283 422.954 845.877 437.985C847.278 446.097 853.269 450.167 850.566 459.999C848.622 467.073 839.712 468.065 837.238 474.184C835.687 478.018 839.762 484.341 841 488z"/>
<path style="fill:#eac6a6; stroke:none;" d="M570 420L570 424L571 424L570 420z"/>
<path style="fill:#70798a; stroke:none;" d="M891.667 420.333L892.333 420.667L891.667 420.333z"/>
<path style="fill:#e8b099; stroke:none;" d="M432 422L432 423L437 423L432 422z"/>
<path style="fill:#faddbf; stroke:none;" d="M447 493L447 485L418 478L429 460C429.063 482.799 449.091 482.291 466 488C469.857 478.054 475.072 468.284 477.953 458C481.555 445.138 472.876 427.81 460.001 424.904C455.414 423.869 452.306 427.079 447.985 426.413C439.725 425.138 434.842 420.909 426 424.272C410.104 430.32 404.284 456.897 401.615 472C400.701 477.171 399.157 487.405 403.318 491.431C412.762 500.57 435.544 493.492 447 493z"/>
<path style="fill:#d7aba8; stroke:none;" d="M477.333 422.667L477.667 423.333L477.333 422.667z"/>
<path style="fill:#797b87; stroke:none;" d="M853.667 422.333L854.333 422.667L853.667 422.333z"/>
<path style="fill:#d18472; stroke:none;" d="M458.667 424.333L459.333 424.667L458.667 424.333z"/>
<path style="fill:#b6453d; stroke:none;" d="M273 425C266.297 433.753 279.773 440.782 286 446.13C288.279 448.088 291.587 451.989 294.91 451.833C299.164 451.633 303.556 444.004 306 441L306 440L273 425z"/>
<path style="fill:#243560; stroke:none;" d="M335 426L331 428L331 434L336 433L335 426z"/>
<path style="fill:#4a6286; stroke:none;" d="M336 426L336 431L337 431L336 426z"/>
<path style="fill:#d7aeb4; stroke:none;" d="M476.333 426.667L476.667 427.333L476.333 426.667z"/>
<path style="fill:#fbfbf9; stroke:none;" d="M326 427L326 428L330 429L326 427z"/>
<path style="fill:#777a89; stroke:none;" d="M331.667 427.333L332.333 427.667L331.667 427.333z"/>
<path style="fill:#efcdb1; stroke:none;" d="M571 427L571 432L572 432L571 427z"/>
<path style="fill:#fa9746; stroke:none;" d="M574 450L615 438.975L632 436L633 436L634 427C618.92 429.219 602.392 434.909 588 439.95C581.328 442.287 574.279 441.519 574 450z"/>
<path style="fill:#787b8e; stroke:none;" d="M317 428L317 429L324 429L317 428z"/>
<path style="fill:#9ea0b9; stroke:none;" d="M327.667 428.333L328.333 428.667L327.667 428.333z"/>
<path style="fill:#253862; stroke:none;" d="M312 435L325 435L324 429C318.371 429.02 314.611 429.582 312 435z"/>
<path style="fill:#16335d; stroke:none;" d="M330 429C322.691 430.218 328.782 436.309 330 429z"/>
<path style="fill:#e0e4f0; stroke:none;" d="M330 429C328.891 432.571 327.055 433.485 325 430L324 430C325.159 437.264 332.688 435.586 330 429z"/>
<path style="fill:#b4b6cb; stroke:none;" d="M331 430L331 433L332 433L331 430z"/>
<path style="fill:#fdb17d; stroke:none;" d="M303 431L298 435L298 436L309 441L312 433L303 431z"/>
<path style="fill:#f4d1bb; stroke:none;" d="M154 432L154 440L155 440L154 432z"/>
<path style="fill:#f0bf96; stroke:none;" d="M218 433L218 443L219 443L218 433z"/>
<path style="fill:#ed7d2b; stroke:none;" d="M326 436L326 437C341.853 442.007 325.529 470.534 322.204 479C309.662 510.945 304.606 545.115 307.83 579C308.544 586.503 305.563 603.218 310.028 609.347C313.782 614.502 323.242 611.792 325.821 606.956C330.848 597.533 329.926 580.634 331.576 570C335.027 547.744 337.479 525.348 340.155 503C341.693 490.158 344.821 476.992 343.91 464C343.163 453.331 338.386 443.315 336 433L326 436z"/>
<path style="fill:#eaa16c; stroke:none;" d="M336.333 434.667L336.667 435.333L336.333 434.667z"/>
<path style="fill:#ed7d2b; stroke:none;" d="M575 450L578 462L616 451.117L630.821 445.487L632 434L575 450z"/>
<path style="fill:#fa9746; stroke:none;" d="M309 441L294.91 451.034L286 446C279.167 467.006 281.919 490.144 279.83 512C277.911 532.09 269.884 550.978 267.282 571C266.221 579.161 263.873 590.824 266.028 598.891C267.217 603.344 274.324 604.39 277.775 602.103C285.504 596.981 291.112 577.418 294.861 569C299.508 558.565 305.41 548.131 308.24 537C312.127 521.713 313.473 506.119 318.494 491C323.145 476.996 332.943 462.986 331.91 448C331.087 436.047 315.037 427.72 309 441z"/>
<path style="fill:#d3a29e; stroke:none;" d="M401.333 436.667L401.667 437.333L401.333 436.667z"/>
<path style="fill:#e9d2c0; stroke:none;" d="M632 436L632 440L633 440L632 436z"/>
<path style="fill:#edaa7f; stroke:none;" d="M337.333 437.667L337.667 438.333L337.333 437.667z"/>
<path style="fill:#e9bb97; stroke:none;" d="M338.333 440.667L338.667 441.333L338.333 440.667z"/>
<path style="fill:#dec5c8; stroke:none;" d="M400 440L400 446L401 446L400 440z"/>
<path style="fill:#ffb27e; stroke:none;" d="M847 441L838.39 455.985L832.241 464.09L836 474C845.441 468.738 861.002 450.571 847 441z"/>
<path style="fill:#f0a77c; stroke:none;" d="M339.333 444.667L339.667 445.333L339.333 444.667z"/>
<path style="fill:#ed7d2b; stroke:none;" d="M914 444L915 447C898.598 453.223 910.162 472.018 902.143 483.891C897.18 491.24 888.228 488.949 884 499C899.167 497.761 901.352 489.663 911.04 480.043C915.758 475.359 921.958 472.625 925.751 466.985C933.808 455.004 926.668 445.871 914 444z"/>
<path style="fill:#f1be91; stroke:none;" d="M153 446L153 456L154 456L153 446z"/>
<path style="fill:#fa9746; stroke:none;" d="M579 462L579 463C592.744 470.585 615.583 456.443 630 454L631 447C614.531 449.22 594.199 455.271 579 462z"/>
<path style="fill:#f0c5a5; stroke:none;" d="M630 450L630 456L631 456L630 450z"/>
<path style="fill:#e9b58e; stroke:none;" d="M341.333 451.667L341.667 452.333L341.333 451.667z"/>
<path style="fill:#fa9746; stroke:none;" d="M929 451C928.99 466.086 920.969 469.638 911.04 479.104C905.843 484.058 903.466 492.065 896.985 495.558C885.719 501.63 872.044 499.356 860 501.325C847.003 503.449 834.497 510.531 824 518.152C806.199 531.075 798.928 550.466 788.133 569C786.048 572.581 786.462 576.754 784 580L784 581C796.1 589.953 780.773 612.427 770 616L770 612L753 624L753 625L897 625C911.44 625 939.466 630.364 950.985 620.671C965.657 608.325 960.719 586.754 960 570C955.99 570 952.373 563.522 947 563C936.288 561.958 927.79 566.934 918 570.333C914.099 571.688 908.904 574.837 905 571.833C894.663 563.881 906.979 551.114 913 545C921.49 536.38 932.873 531.002 941 522C953.874 507.74 951.217 489.652 945.667 473C943.106 465.319 937.316 453.407 929 451z"/>
<path style="fill:#ffb27e; stroke:none;" d="M893 457C893 461.755 894.698 470.597 891.972 474.682C889.534 478.336 880.943 477.627 877 478.285C865.097 480.273 850.985 480.529 841 488L841 489L843 493L848 493L848 492L844 492L844 491L850 490C850.552 493.698 855.821 492.989 859 493L859 492L853 492L853 491L860 485C870.257 486.933 892.878 494.502 901.486 485.566C907.585 479.236 906 461.245 906 453L893 457z"/>
<path style="fill:#eee6e4; stroke:none;" d="M479 454L479 455L534 455L516 454L479 454z"/>
<path style="fill:#ed7d2b; stroke:none;" d="M586 465L586 467C598.816 467 627.964 472.277 630 454L586 465z"/>
<path style="fill:#fa9746; stroke:none;" d="M463 495L502 495L517.61 493.972L523.424 483L534 455L495 455L479.51 456.028L474.2 467L463 495z"/>
<path style="fill:#e1b89a; stroke:none;" d="M778 458L829 457C818.972 452.792 801.896 456 791 456C786.932 456 780.848 454.741 778 458z"/>
<path style="fill:#fa9746; stroke:none;" d="M779 457L793 494L859 494L859 493L843 493C841.248 484.8 835.322 463.007 828.351 458.028C825.016 455.646 817.902 457 814 457L779 457z"/>
<path style="fill:#213f7b; stroke:none;" d="M155 458C155 499.614 155.156 543.721 160.576 585C161.774 594.128 161.633 603.794 162.039 613C162.168 615.92 162.078 621.988 164.603 623.972C167.725 626.426 175.218 625 179 625L188.725 560L193 536C189.317 512.86 200.997 487.358 201 464L155 458z"/>
<path style="fill:#233863; stroke:none;" d="M218 458L200 463C205.683 486.881 188.674 513.613 193 538C198.937 534.369 201.224 525.046 204.247 519C212.756 501.979 229.873 477.439 218 458z"/>
<path style="fill:#6d869c; stroke:none;" d="M219 458L219 461L220 461L219 458z"/>
<path style="fill:#776365; stroke:none;" d="M162.667 459.333L163.333 459.667L162.667 459.333z"/>
<path style="fill:#e9c4a9; stroke:none;" d="M343.333 459.667L343.667 460.333L343.333 459.667z"/>
<path style="fill:#f3ccab; stroke:none;" d="M427 460C426.033 462.661 424.364 465.237 423.738 468C420.508 482.242 436.859 482.917 447 485L447 493L441 493L441 494L464 493C460.626 487.16 453.578 490.981 448 491L450 484C437.495 479.742 429.116 474.019 429 460L427 460z"/>
<path style="fill:#b97d5b; stroke:none;" d="M172 461L172 462L176 462L172 461z"/>
<path style="fill:#d4deea; stroke:none;" d="M154 462L154 475L155 475L154 462z"/>
<path style="fill:#816059; stroke:none;" d="M205 462L205 463L208 463L205 462z"/>
<path style="fill:#bbc4d5; stroke:none;" d="M220 462L220 465L221 465L220 462z"/>
<path style="fill:#5b576e; stroke:none;" d="M187 463L187 464L200 464L187 463z"/>
<path style="fill:#ebc6ab; stroke:none;" d="M344 464L344 473L345 473L344 464z"/>
<path style="fill:#ecd9ca; stroke:none;" d="M281 466L281 475L282 475L281 466z"/>
<path style="fill:#e9c4a7; stroke:none;" d="M617.667 466.333L618.333 466.667L617.667 466.333z"/>
<path style="fill:#ede3e1; stroke:none;" d="M591 467L591 468L615 468L591 467z"/>
<path style="fill:#b1d0fc; stroke:none;" d="M422 469L418 478L424 479L422 469z"/>
<path style="fill:#74849e; stroke:none;" d="M221 472L221 476L222 476L221 472z"/>
<path style="fill:#c9daf4; stroke:none;" d="M708 474L708 475L720 487C712.71 484.855 705.689 475.971 698 476.434C685.787 477.169 678.047 493.175 689.213 501.257C695.013 505.455 704.547 499.295 711 499L696 508C697.764 510.39 699.556 512.223 702.005 513.958C719.532 526.372 722.236 504.82 738 504C730.617 510.067 723.395 512.267 720 522L732 523C739.009 511.744 771.607 483.87 744 475.221C741.033 474.291 738.084 474.064 735 474L742 491C736.899 486.274 737.07 478.164 732.298 473.742C727.456 469.256 713.488 471.945 708 474z"/>
<path style="fill:#fcfefd; stroke:none;" d="M499 478C506.309 476.782 500.218 470.691 499 478z"/>
<path style="fill:#fdfbfc; stroke:none;" d="M806 473L810 478C810.547 474.44 809.49 473.581 806 473z"/>
<path style="fill:#f4b781; stroke:none;" d="M281 475L281 483L282 483L281 475z"/>
<path style="fill:#ffc79a; stroke:none;" d="M498.333 475.667L498.667 476.333L498.333 475.667z"/>
<path style="fill:#213f7b; stroke:none;" d="M221 476C220.99 491.345 209.991 506.503 203.247 520C200.181 526.135 198.117 533.272 193 538C197.162 559.459 200.365 580.095 207.333 601C209.16 606.479 211.348 618.879 217.213 621.396C222.505 623.667 229.895 619.365 235 618L224.039 533L222.039 494L221 476z"/>
<path style="fill:#ecc7aa; stroke:none;" d="M343 476L343 483L344 483L343 476z"/>
<path style="fill:#6e81ab; stroke:none;" d="M155 477L155 485L156 485L155 477z"/>
<path style="fill:#edcdb4; stroke:none;" d="M947.333 478.667L947.667 479.333L947.333 478.667z"/>
<path style="fill:#bdc9e1; stroke:none;" d="M222 481L222 493L223 493L222 481z"/>
<path style="fill:#b0bccc; stroke:none;" d="M778 483L778 484L784 484L778 483z"/>
<path style="fill:#7f8da8; stroke:none;" d="M784 483L784 484L789 484L784 483z"/>
<path style="fill:#9daabd; stroke:none;" d="M768 484L768 485L773 485L768 484z"/>
<path style="fill:#233863; stroke:none;" d="M764 566L765 566L778.949 519L786.499 500.533L800 495L800 494L793 494C790.791 481.174 780.552 483.565 770 484.845C765.738 485.362 758.928 485.581 756.893 490.144C754.587 495.317 755.938 503.443 756.004 509C756.222 527.353 759.612 548.191 764 566z"/>
<path style="fill:#ffb17e; stroke:none;" d="M448 491L465 492L466 488C460.14 485.276 448.754 481.543 448 491z"/>
<path style="fill:#96a5b8; stroke:none;" d="M763.667 485.333L764.333 485.667L763.667 485.333z"/>
<path style="fill:#faddbf; stroke:none;" d="M860 485L853 491L853 492L859 492L859 494L836 494L836 495C839.983 497.852 844.201 501.583 849 502.941C853.835 504.308 859.248 501.471 864 500.616C874.756 498.681 885.707 502.891 889 489L860 485z"/>
<path style="fill:#ebd6c5; stroke:none;" d="M342 486L342 491L343 491L342 486z"/>
<path style="fill:#5a6a8c; stroke:none;" d="M760.667 486.333L761.333 486.667L760.667 486.333z"/>
<path style="fill:#f1caab; stroke:none;" d="M280 487L280 499L281 499L280 487z"/>
<path style="fill:#75859e; stroke:none;" d="M756.333 489.667L756.667 490.333L756.333 489.667z"/>
<path style="fill:#f7e7d0; stroke:none;" d="M844 491L844 492L850 491L844 491z"/>
<path style="fill:#edb594; stroke:none;" d="M341 492L341 499L342 499L341 492z"/>
<path style="fill:#f4ba92; stroke:none;" d="M950 492L950 496L951 496L950 492z"/>
<path style="fill:#7a92b6; stroke:none;" d="M222 493L222 499L223 499L222 493z"/>
<path style="fill:#9799ae; stroke:none;" d="M460 493L460 494L464 494L460 493z"/>
<path style="fill:#aab7c8; stroke:none;" d="M755 493L755 499L756 499L755 493z"/>
<path style="fill:#8da1bc; stroke:none;" d="M156 494L156 522L157 522L156 494z"/>
<path style="fill:#b1d3ff; stroke:none;" d="M406 494L406 536L425 536C419.962 520.86 421.499 510.272 425 495L406 494z"/>
<path style="fill:#626e98; stroke:none;" d="M434 494L434 495L440 495L434 494z"/>
<path style="fill:#2b468b; stroke:none;" d="M447 536L447 551L448 551L448 505C440.077 505 435.109 505.194 435 496L445 496L445 494C440.543 494.191 429.177 493.305 425.738 496.028C418.86 501.474 418.432 528.958 425.279 534.397C430.002 538.149 441.241 536 447 536z"/>
<path style="fill:#806470; stroke:none;" d="M445 496L463 495C458.802 493.239 448.154 492.391 445 496z"/>
<path style="fill:#2a4f96; stroke:none;" d="M808 518L823 518.475L849 505L849 503C844.79 500.412 840.589 496.656 836 494.854C832.063 493.309 827.148 494 823 494C812.5 494 793.556 491.421 785.818 500.533C782.13 504.876 781.12 511.749 779.306 517C774.997 529.47 770.921 542.219 767.63 555C764.884 565.66 761.58 576.262 759.211 587C758.571 589.901 756.122 595.696 758.067 598.397C765.641 608.915 776.56 588.158 779.217 584C792.892 562.598 805.721 544.132 808 518z"/>
<path style="fill:#f47e27; stroke:none;" d="M446 495L446 496L518 496L495 495L446 495z"/>
<path style="fill:#233863; stroke:none;" d="M435 496C435.034 505.627 439.578 505 448 505L446 625L449 625L455 504C471.373 508.84 493.906 505 511 505L630 505L636 625L638 625L637 505C645.04 505 652.88 507.117 653 497L435 496z"/>
<path style="fill:#584b54; stroke:none;" d="M445 496L445 497L518 497L495 496L445 496z"/>
<path style="fill:#566a8b; stroke:none;" d="M518 496L518 497L652 497C641.496 492.592 623.42 496 612 496L518 496z"/>
<path style="fill:#a1aec1; stroke:none;" d="M653 498L653 503L654 503L653 498z"/>
<path style="fill:#af754f; stroke:none;" d="M755 499L755 506L756 506L755 499z"/>
<path style="fill:#edb88e; stroke:none;" d="M340 500L340 507L341 507L340 500z"/>
<path style="fill:#607fb8; stroke:none;" d="M423.333 500.667L423.667 501.333L423.333 500.667z"/>
<path style="fill:#fa9746; stroke:none;" d="M736 622C746.067 617.787 754.452 609.398 758 599C754.156 590.727 763.54 576.952 763.867 568C764.681 545.752 755.962 522.413 755 500C745.201 502.33 737.934 513.158 732.438 521C708.453 555.228 716.939 588.508 736 622z"/>
<path style="fill:#f9b479; stroke:none;" d="M864 500L864 501L875 501L864 500z"/>
<path style="fill:#ed7d2b; stroke:none;" d="M950 500C948.788 523.663 922.831 532.865 909.13 548.425C904.342 553.863 896.259 564.98 904.344 571.397C909.255 575.294 917.09 571.091 922 569.189C934.385 564.392 948.321 557.896 958 571L959 571L952.424 519L950 500z"/>
<path style="fill:#7f6a6f; stroke:none;" d="M849.333 503.667L849.667 504.333L849.333 503.667z"/>
<path style="fill:#2b468b; stroke:none;" d="M455 504L454 536C466.001 536 476.913 533.827 488 529.095C491.445 527.625 500.446 522.29 503.892 523.903C509.3 526.434 511.144 537.072 513.963 541.911C521.09 554.145 534.655 563.696 545 573.075C549.766 577.395 554.89 582.64 561.941 580.427C569.669 578.003 559.95 565.279 557.742 561C550.733 547.421 543.159 533.953 535.05 521C532.206 516.456 529.117 508.969 524.482 506.028C519.932 503.14 510.233 505 505 505C489.133 505 470.455 507.68 455 504z"/>
<path style="fill:#d4dee7; stroke:none;" d="M525 507L561 506L629 506L629 511L630 511L630 505L552 505C545.713 505 529.25 502.136 525 507z"/>
<path style="fill:#7584a1; stroke:none;" d="M637 505L637 525L638 525L637 505z"/>
<path style="fill:#d4dee7; stroke:none;" d="M638 505L638 506L651 506L638 505z"/>
<path style="fill:#c0cbdf; stroke:none;" d="M223 506L223 512L224 512L223 506z"/>
<path style="fill:#f0d2b6; stroke:none;" d="M279 506L279 515L280 515L279 506z"/>
<path style="fill:#eaf3fa; stroke:none;" d="M526 506L556.691 560L569.147 583.39L590 591L590 593C582.723 595.238 569.751 600.447 562.148 596.802C557.505 594.577 559.137 585.974 555.772 582.039C547.888 572.821 537.087 564.768 528.001 556.714C523.599 552.814 520.357 547.551 515 545L502.326 581L503 625L636 625L633.961 586L629 506L526 506z"/>
<path style="fill:#eeba95; stroke:none;" d="M339 508L339 515L340 515L339 508z"/>
<path style="fill:#607fb5; stroke:none;" d="M421 508L421 512L422 512L421 508z"/>
<path style="fill:#546287; stroke:none;" d="M630 510L630 518L631 518L630 510z"/>
<path style="fill:#8a9dbd; stroke:none;" d="M223 512L223 517L224 517L223 512z"/>
<path style="fill:#ecd5c5; stroke:none;" d="M952 512L952 520L953 520L952 512z"/>
<path style="fill:#edbea0; stroke:none;" d="M338 516L338 523L339 523L338 516z"/>
<path style="fill:#a1acc2; stroke:none;" d="M630 518L630 523L631 523L630 518z"/>
<path style="fill:#ed7d2b; stroke:none;" d="M808 518L805 536L806 536L823 520L808 518z"/>
<path style="fill:#876061; stroke:none;" d="M813 518L813 519L818 519L813 518z"/>
<path style="fill:#d6dfee; stroke:none;" d="M156 522L156 534L157 534L156 522z"/>
<path style="fill:#233863; stroke:none;" d="M511 556C516.863 546.727 513.46 540.106 509.305 531C508.031 528.209 506.591 523.387 502.961 522.921C490.705 521.35 502.154 540.859 503.988 544C506.327 548.003 508.23 552.279 511 556z"/>
<path style="fill:#bdc9d9; stroke:none;" d="M224 523L224 530L225 530L224 523z"/>
<path style="fill:#e6f4f7; stroke:none;" d="M496 525L487 536C494.896 535.906 495.431 531.669 498 525L496 525z"/>
<path style="fill:#7f6068; stroke:none;" d="M806 525L806 528L807 528L806 525z"/>
<path style="fill:#243964; stroke:none;" d="M467 535L467 536C478.549 536 487.611 537.459 495 527L467 535z"/>
<path style="fill:#2b468b; stroke:none;" d="M496 528C494.622 541.844 490.568 556.153 488.41 570C487.707 574.51 485.054 582.488 488.603 586.347C490.94 588.888 496.524 590.052 499.157 587.397C504.055 582.46 509.741 564.907 510.294 558C510.984 549.385 500.184 535.404 496 528z"/>
<path style="fill:#58709e; stroke:none;" d="M224 530L224 538L225 538L224 530z"/>
<path style="fill:#627595; stroke:none;" d="M631 530L631 536L632 536L631 530z"/>
<path style="fill:#77636c; stroke:none;" d="M805.333 530.667L805.667 531.333L805.333 530.667z"/>
<path style="fill:#eda56b; stroke:none;" d="M953 530L953 534L954 534L953 530z"/>
<path style="fill:#6a7aae; stroke:none;" d="M495.333 531.667L495.667 532.333L495.333 531.667z"/>
<path style="fill:#4c6794; stroke:none;" d="M157 533L157 542L158 542L157 533z"/>
<path style="fill:#95c0f3; stroke:none;" d="M406 536L409.942 550.015L409 625L411 625L415 545L438 545L437 537L447 537C436.106 532.429 417.805 536 406 536z"/>
<path style="fill:#b1d3ff; stroke:none;" d="M454 536L454 545C466.468 545 491.116 550.802 494 536L454 536z"/>
<path style="fill:#89646b; stroke:none;" d="M804.333 535.667L804.667 536.333L804.333 535.667z"/>
<path style="fill:#7d91b6; stroke:none;" d="M191 536L191 541L192 541L193 536L191 536z"/>
<path style="fill:#5a729e; stroke:none;" d="M453 536L453 545L454 545L453 536z"/>
<path style="fill:#94a3b8; stroke:none;" d="M631 536L631 540L632 540L631 536z"/>
<path style="fill:#eaf3fa; stroke:none;" d="M192 537L180 625L217 625L199.377 575L192 537z"/>
<path style="fill:#b1d2ff; stroke:none;" d="M437 537C437.181 544.445 440.166 544.995 447 545L447 537L437 537z"/>
<path style="fill:#7090c3; stroke:none;" d="M493.333 538.667L493.667 539.333L493.333 538.667z"/>
<path style="fill:#c0ccda; stroke:none;" d="M638 538L638 555L639 555L638 538z"/>
<path style="fill:#94766b; stroke:none;" d="M803.333 539.667L803.667 540.333L803.333 539.667z"/>
<path style="fill:#7c8fad; stroke:none;" d="M193.333 540.667L193.667 541.333L193.333 540.667z"/>
<path style="fill:#99a6c6; stroke:none;" d="M225 540L225 544L226 544L225 540z"/>
<path style="fill:#bbc8d8; stroke:none;" d="M631 540L631 546L632 546L631 540z"/>
<path style="fill:#eccab1; stroke:none;" d="M335 541L335 544L336 544L335 541z"/>
<path style="fill:#c2d2df; stroke:none;" d="M157 542L157 550L158 550L157 542z"/>
<path style="fill:#6280bc; stroke:none;" d="M492 543L492 546L493 546L492 543z"/>
<path style="fill:#506b98; stroke:none;" d="M225 544L225 548L226 548L225 544z"/>
<path style="fill:#f0c9a8; stroke:none;" d="M272.333 544.667L272.667 545.333L272.333 544.667z"/>
<path style="fill:#f1c6a4; stroke:none;" d="M720.333 544.667L720.667 545.333L720.333 544.667z"/>
<path style="fill:#637aa3; stroke:none;" d="M194 545L194 550L195 550L194 545z"/>
<path style="fill:#e9d6c7; stroke:none;" d="M305 545L305 552L306 552L305 545z"/>
<path style="fill:#eaf3fa; stroke:none;" d="M415 545L411 625L445 625L447 545L415 545M453 545L450 625L493 625L493 624C489.01 620.934 474.196 608.281 475.461 603.044C476.367 599.295 481.085 598.559 483.581 596.302C486.382 593.769 487.186 589.518 488 586C482.328 577.215 490.724 555.044 492 545L453 545M304 548C297.688 561.321 291.839 574.807 285.247 588C282.481 593.535 280.819 600.131 275 603C275 607.83 273.82 614.56 276.179 618.946C281.374 628.605 299.967 625 309 625L306.17 568L304 548z"/>
<path style="fill:#61708f; stroke:none;" d="M632 549L632 557L633 557L632 549z"/>
<path style="fill:#eaab7f; stroke:none;" d="M956 550L956 554L957 554L956 550z"/>
<path style="fill:#7487af; stroke:none;" d="M226 552L226 558L227 558L226 552z"/>
<path style="fill:#eec7a0; stroke:none;" d="M270.333 552.667L270.667 553.333L270.333 552.667z"/>
<path style="fill:#a1b5d0; stroke:none;" d="M189 554L189 557L190 557L189 554z"/>
<path style="fill:#687fa8; stroke:none;" d="M158 555L158 563L159 563L158 555z"/>
<path style="fill:#6679a3; stroke:none;" d="M195 555L195 558L196 558L195 555z"/>
<path style="fill:#a0abbf; stroke:none;" d="M638 555L638 570L639 570L638 555z"/>
<path style="fill:#f1c39f; stroke:none;" d="M717 556L717 560L718 560L717 556z"/>
<path style="fill:#e8a87c; stroke:none;" d="M957 556L957 560L958 560L957 556z"/>
<path style="fill:#aeb9cb; stroke:none;" d="M446 557L446 571L447 571L446 557z"/>
<path style="fill:#808fa6; stroke:none;" d="M452 557L452 565L453 565L452 557z"/>
<path style="fill:#adbcd3; stroke:none;" d="M227 560L227 565L228 565L227 560z"/>
<path style="fill:#a0b1cf; stroke:none;" d="M188 561L188 564L189 564L188 561z"/>
<path style="fill:#7890b4; stroke:none;" d="M196 561L196 564L197 564L196 561z"/>
<path style="fill:#ebc8b2; stroke:none;" d="M958 562L958 565L959 565L958 562z"/>
<path style="fill:#c4d4e1; stroke:none;" d="M158 563L158 570L159 570L158 563z"/>
<path style="fill:#ecbe9d; stroke:none;" d="M306 563L306 571L307 571L306 563z"/>
<path style="fill:#6377a9; stroke:none;" d="M187 566L187 569L188 569L187 566z"/>
<path style="fill:#8a9ec3; stroke:none;" d="M197.333 566.667L197.667 567.333L197.333 566.667z"/>
<path style="fill:#f1be91; stroke:none;" d="M267 566L267 570L268 570L267 566z"/>
<path style="fill:#5973a6; stroke:none;" d="M488 566L488 570L489 570L488 566z"/>
<path style="fill:#617192; stroke:none;" d="M633 568L633 576L634 576L633 568z"/>
<path style="fill:#8295b6; stroke:none;" d="M198.333 570.667L198.667 571.333L198.333 570.667z"/>
<path style="fill:#4e6382; stroke:none;" d="M638 570L638 582L639 582L638 570z"/>
<path style="fill:#8d9cb3; stroke:none;" d="M446 571L446 579L447 579L446 571z"/>
<path style="fill:#677aa2; stroke:none;" d="M228 572L228 576L229 576L228 572z"/>
<path style="fill:#8796bd; stroke:none;" d="M487 572L487 576L488 576L487 572z"/>
<path style="fill:#8b9ebe; stroke:none;" d="M159 573L159 581L160 581L159 573z"/>
<path style="fill:#f6b98c; stroke:none;" d="M266 573L266 578L267 578L266 573z"/>
<path style="fill:#60718f; stroke:none;" d="M451 573L451 579L452 579L451 573z"/>
<path style="fill:#6c5953; stroke:none;" d="M785 573L785 580L786 580L785 573z"/>
<path style="fill:#8498bd; stroke:none;" d="M199.333 574.667L199.667 575.333L199.333 574.667z"/>
<path style="fill:#95726c; stroke:none;" d="M762.333 574.667L762.667 575.333L762.333 574.667z"/>
<path style="fill:#152e66; stroke:none;" d="M784 575L783 580L784 575z"/>
<path style="fill:#eb9e66; stroke:none;" d="M307 576L307 582L308 582L307 576z"/>
<path style="fill:#ecad81; stroke:none;" d="M330 576L330 579L331 579L330 576z"/>
<path style="fill:#a6b3c6; stroke:none;" d="M633 576L633 582L634 582L633 576z"/>
<path style="fill:#efdccd; stroke:none;" d="M717 576L717 581L718 581L717 576z"/>
<path style="fill:#97a8c4; stroke:none;" d="M200.333 578.667L200.667 579.333L200.333 578.667z"/>
<path style="fill:#7e6e78; stroke:none;" d="M761.333 578.667L761.667 579.333L761.333 578.667z"/>
<path style="fill:#516182; stroke:none;" d="M446 579L446 595L447 595L446 579z"/>
<path style="fill:#92a2bb; stroke:none;" d="M451 579L451 584L452 584L451 579z"/>
<path style="fill:#ffb27e; stroke:none;" d="M555 581L559 592C567.331 592.358 574.224 594.076 582 590L582 589C575.642 587.853 569.836 584.166 566 579L555 581M782 579C774.79 588.917 775.654 595.851 773 607C783.928 603.924 784.608 590.468 786 581L782 579z"/>
<path style="fill:#cbd9e4; stroke:none;" d="M159 581L159 585L160 585L159 581z"/>
<path style="fill:#728aae; stroke:none;" d="M229 581L229 584L230 584L229 581z"/>
<path style="fill:#f3bf97; stroke:none;" d="M265 581L265 599L266 599L265 581z"/>
<path style="fill:#bdcadb; stroke:none;" d="M185 582L185 586L186 586L185 582z"/>
<path style="fill:#eaddd4; stroke:none;" d="M307 582L307 592L308 592L307 582z"/>
<path style="fill:#8999bb; stroke:none;" d="M486 582L486 586L487 586L486 582z"/>
<path style="fill:#aed2ff; stroke:none;" d="M501 582L497 589L500 625L503 625C503 612.152 506.032 593.987 501 582z"/>
<path style="fill:#efccae; stroke:none;" d="M961 582L961 587L962 587L961 582z"/>
<path style="fill:#2e3351; stroke:none;" d="M786 583C784.354 588.567 784.757 593.766 781.647 599C777.641 605.743 771.206 607.484 771 616C782.647 612.137 791.244 594.922 788 583L786 583z"/>
<path style="fill:#506799; stroke:none;" d="M160 584L160 589L161 589L160 584z"/>
<path style="fill:#9cabc8; stroke:none;" d="M202.333 585.667L202.667 586.333L202.333 585.667z"/>
<path style="fill:#d8e2ec; stroke:none;" d="M639 586L639 594L640 594L639 586z"/>
<path style="fill:#ffb17e; stroke:none;" d="M488 587C485.749 592.045 484.572 596.059 479 598C480.527 606.462 486.7 615.239 495 618C491.118 607.35 495.453 599.473 497 589L488 587z"/>
<path style="fill:#f2cdb2; stroke:none;" d="M719.333 587.667L719.667 588.333L719.333 587.667z"/>
<path style="fill:#ba8670; stroke:none;" d="M784 587L784 594L785 594L784 587z"/>
<path style="fill:#f5ae6e; stroke:none;" d="M961 587L961 600L962 600L961 587z"/>
<path style="fill:#9cadc7; stroke:none;" d="M160 589L160 594L161 594L160 589z"/>
<path style="fill:#876d76; stroke:none;" d="M758.333 589.667L758.667 590.333L758.333 589.667z"/>
<path style="fill:#e9f2fb; stroke:none;" d="M497 590C492.648 603.379 491.435 612.639 499 625L500 625C500 615.875 502.145 597.531 497 590z"/>
<path style="fill:#213760; stroke:none;" d="M559 592C560.556 601.323 585.201 596.458 590 591L559 592z"/>
<path style="fill:#708099; stroke:none;" d="M634 590L634 594L635 594L634 590z"/>
<path style="fill:#61708f; stroke:none;" d="M450 592L450 598L451 598L450 592z"/>
<path style="fill:#909eb9; stroke:none;" d="M589 592L590 593L589 592z"/>
<path style="fill:#826c78; stroke:none;" d="M757.333 593.667L757.667 594.333L757.333 593.667z"/>
<path style="fill:#f99643; stroke:none;" d="M773 593C769.225 599.918 769.027 604.3 770 612L771 612C773.41 606.083 775.614 599.228 773 593z"/>
<path style="fill:#92694b; stroke:none;" d="M786.333 593.667L786.667 594.333L786.333 593.667z"/>
<path style="fill:#ccdae7; stroke:none;" d="M160 594L160 600L161 600L160 594z"/>
<path style="fill:#ecaf80; stroke:none;" d="M308 594L308 603L309 603L308 594z"/>
<path style="fill:#c0c9d8; stroke:none;" d="M634 594L634 602L635 602L634 594z"/>
<path style="fill:#adb8ca; stroke:none;" d="M639 594L639 605L640 605L639 594z"/>
<path style="fill:#8f97ae; stroke:none;" d="M582 595L582 596L585 596L582 595z"/>
<path style="fill:#efb993; stroke:none;" d="M327 596L327 600L328 600L327 596z"/>
<path style="fill:#8a96ac; stroke:none;" d="M568.667 596.333L569.333 596.667L568.667 596.333z"/>
<path style="fill:#bfc5d5; stroke:none;" d="M570 596L570 597L579 597L570 596z"/>
<path style="fill:#878fa6; stroke:none;" d="M561 597L561 598L565 598L561 597z"/>
<path style="fill:#29324f; stroke:none;" d="M638 597C638 603.058 640.914 619.835 636.397 624.258C630.993 629.547 610.284 626 603 626L536 626C525.427 626 513.471 627.572 503.043 625.852C496.62 624.792 486.059 611.428 482.611 606.005C481.618 604.442 478.468 598.64 476.028 601.662C471.502 607.266 490.449 622.278 494 626L382 626C371.839 626 349.143 630.169 341 624C332.056 625.66 323.038 624.644 314 625.039C298.97 625.698 282.832 627.531 268 624C257.899 631.652 244.875 620.351 235 618.603C229.603 617.647 223.536 621.716 218 622L218 626C209.967 626 184.531 629.99 180 623L179 623C174.683 626.27 168.039 625.2 163 624C157.098 628.472 144.228 626 137 626L70 626L70 628L1076 628L1076 626L752 626C757.682 620.451 768.702 616.334 770 608C763.605 610.477 759.483 616.335 753 618.724C748.708 620.305 744.203 618.233 740.059 620.013C737.033 621.313 736.564 623.074 737 626L666 626C660.232 626 644.901 628.694 640.603 624.397C635.013 618.806 640.996 604.14 638 597z"/>
<path style="fill:#7f7075; stroke:none;" d="M756.333 597.667L756.667 598.333L756.333 597.667z"/>
<path style="fill:#aec1d2; stroke:none;" d="M206.333 598.667L206.667 599.333L206.333 598.667z"/>
<path style="fill:#8fa0b2; stroke:none;" d="M450 598L450 605L451 605L450 598z"/>
<path style="fill:#8e766c; stroke:none;" d="M477.667 599.333L478.333 599.667L477.667 599.333z"/>
<path style="fill:#233863; stroke:none;" d="M283 625C279.51 621.763 276.217 619.912 274.789 614.999C273.833 611.709 275.031 606.593 272.397 604.071C267.426 599.312 259.076 601.23 259.373 609C259.893 622.607 272.731 625 283 625z"/>
<path style="fill:#bfd8f7; stroke:none;" d="M412 600L412 608L413 608L412 600z"/>
<path style="fill:#ffb27e; stroke:none;" d="M757 600C754.876 607.151 748.656 613.319 743 618L743 619C755.389 619 768.949 614.504 769 600L757 600z"/>
<path style="fill:#7a7691; stroke:none;" d="M760 600L760 601L766 601L760 600z"/>
<path style="fill:#4e6084; stroke:none;" d="M474 602L474 605L475 605L474 602z"/>
<path style="fill:#8ca1be; stroke:none;" d="M161 603L161 608L162 608L161 603z"/>
<path style="fill:#8998ad; stroke:none;" d="M261 603L262 604L261 603z"/>
<path style="fill:#9f674e; stroke:none;" d="M272.667 603.333L273.333 603.667L272.667 603.333z"/>
<path style="fill:#b8c7dc; stroke:none;" d="M233.333 604.667L233.667 605.333L233.333 604.667z"/>
<path style="fill:#536385; stroke:none;" d="M274 604L274 615L275 615L274 604z"/>
<path style="fill:#efcba9; stroke:none;" d="M960.333 604.667L960.667 605.333L960.333 604.667z"/>
<path style="fill:#8b99b3; stroke:none;" d="M639 605L639 614L640 614L639 605z"/>
<path style="fill:#7786af; stroke:none;" d="M233.333 606.667L233.667 607.333L233.333 606.667z"/>
<path style="fill:#d8e7fa; stroke:none;" d="M408 606L408 625L409 625L408 606z"/>
<path style="fill:#939aac; stroke:none;" d="M475 606L476 607L475 606z"/>
<path style="fill:#bfccdd; stroke:none;" d="M258.333 608.667L258.667 609.333L258.333 608.667z"/>
<path style="fill:#a3b2c7; stroke:none;" d="M445 608L445 625L446 625L445 608z"/>
<path style="fill:#677697; stroke:none;" d="M635 608L635 616L636 616L635 608z"/>
<path style="fill:#bec9df; stroke:none;" d="M234 609L234 612L235 612L234 609z"/>
<path style="fill:#233863; stroke:none;" d="M309 610L310 625L340 624L340 623C332.295 620.37 326.241 618.717 321 612L309 610z"/>
<path style="fill:#8e99af; stroke:none;" d="M479 610L480 611L479 610z"/>
<path style="fill:#92a1b4; stroke:none;" d="M259 611L260 612L259 611z"/>
<path style="fill:#b0c7d5; stroke:none;" d="M321.333 611.667L321.667 612.333L321.333 611.667z"/>
<path style="fill:#55678b; stroke:none;" d="M449 611L449 619L450 619L449 611z"/>
<path style="fill:#604d51; stroke:none;" d="M316 612L316 613L320 613L316 612z"/>
<path style="fill:#665053; stroke:none;" d="M770 612L770 616L771 616L770 612z"/>
<path style="fill:#617091; stroke:none;" d="M639 614L639 625L640 625L639 614z"/>
<path style="fill:#b5c1d1; stroke:none;" d="M635 616L635 624L636 624L635 616z"/>
<path style="fill:#8d9cbb; stroke:none;" d="M162 617L162 621L163 621L162 617z"/>
<path style="fill:#657ca6; stroke:none;" d="M180 617L180 621L181 621L180 617z"/>
<path style="fill:#8092aa; stroke:none;" d="M264 617L265 618L264 617z"/>
<path style="fill:#8797a7; stroke:none;" d="M486 618L487 619L486 618z"/>
<path style="fill:#a3aeca; stroke:none;" d="M265 619L265 622L266 622L265 619z"/>
<path style="fill:#a6b2cc; stroke:none;" d="M449 619L449 625L450 625L449 619z"/>
<path style="fill:#7d6364; stroke:none;" d="M746 619L746 620L752 620L746 619z"/>
<path style="fill:#7787a1; stroke:none;" d="M179.333 621.667L179.667 622.333L179.333 621.667z"/>
<path style="fill:#8896b1; stroke:none;" d="M277 621L278 622L277 621z"/>
<path style="fill:#899aae; stroke:none;" d="M334 621L334 622L337 622L334 621z"/>
<path style="fill:#545a72; stroke:none;" d="M217 622C212.525 628.903 187.908 625 180 625L180 626L218 626L217 622z"/>
<path style="fill:#b6c5d8; stroke:none;" d="M243.667 622.333L244.333 622.667L243.667 622.333z"/>
<path style="fill:#545a72; stroke:none;" d="M309 622C305.178 627.896 289.499 625 283 625L283 626L310 626L309 622z"/>
<path style="fill:#8d9db4; stroke:none;" d="M246 623L246 624L249 624L246 623z"/>
<path style="fill:#93a3bd; stroke:none;" d="M266 623L267 624L266 623z"/>
<path style="fill:#b4bdc4; stroke:none;" d="M735.333 623.667L735.667 624.333L735.333 623.667z"/>
<path style="fill:#545a72; stroke:none;" d="M267 624L252 625L252 626L267 624M493 624L449 625L449 626L483 626L493 624z"/>
<path style="fill:#57484d; stroke:none;" d="M752 624L765 626L800 626L944 626L944 625L815 625C795.167 625 771.298 628.595 752 624z"/>
<path style="fill:#545a72; stroke:none;" d="M70 625L70 626L163 626L134 625L70 625M341 625L341 626L446 626L414 625L341 625M499 625L499 626L636 626C625.258 621.492 606.682 625 595 625L499 625M640 625L640 626L737 626L707 625L640 625M944 625L944 626L1076 626C1065.5 621.592 1047.42 625 1036 625L944 625z"/>
<path style="fill:#8c92a0; stroke:none;" d="M69.3333 626.667L69.6667 627.333L69.3333 626.667z"/>
<path style="fill:#8d919d; stroke:none;" d="M1076.33 626.667L1076.67 627.333L1076.33 626.667z"/>
<path style="fill:#414663; stroke:none;" d="M70 628L70 629L1076 629L1049 628L990 628L784 628L70 628z"/>
</svg>
